<?xml version="1.0" encoding="utf-8"?>
<!-- Generator: Adobe Illustrator 16.0.0, SVG Export Plug-In . SVG Version: 6.00 Build 0)  -->
<!DOCTYPE svg PUBLIC "-//W3C//DTD SVG 1.1//EN" "http://www.w3.org/Graphics/SVG/1.1/DTD/svg11.dtd">
<svg version="1.1" id="Layer_1" xmlns="http://www.w3.org/2000/svg" xmlns:xlink="http://www.w3.org/1999/xlink" x="0px" y="0px"
	 width="301.983px" height="85.407px" viewBox="0 0 301.983 85.407" enable-background="new 0 0 301.983 85.407"
	 xml:space="preserve">
<path fill-rule="evenodd" clip-rule="evenodd" fill="#00C8FF" d="M139.969,81.657l9.391-73.315c2.025-1.013,7.689-1.538,8.604,2.732
	c2.974,13.896,10.619,52.647,11.605,72.585c0.104,2.11-4.88,1.707-6.204-0.416l-3.945-22.664l-10.482-0.3l-1.385,22.527
	C147.169,86.476,139.399,86.272,139.969,81.657"/>
<path fill-rule="evenodd" clip-rule="evenodd" fill="#00C8FF" d="M173.104,8.043c-0.698,1.708-0.284,23.62,0.782,32.524
	c0.622,5.186,1.796,6.751,8.377,7.691c3.216,0.459,7.156-0.689,7.156-0.689l0.689,35.16c1.106,2.188,5.745,1.772,6.664-0.689
	l-1.12-35.836c5.518,0.248,5.642-6.384-0.186-5.951l-0.992-31.75c-1.434-1.893-5.471-1.74-5.975,0.459l0.46,31.942
	c0,0-3.63,0.506-5.461,0.362c-5.192-0.411-3.674-26.885-3.873-33.472C178.32,7.087,173.104,5.632,173.104,8.043"/>
<path fill-rule="evenodd" clip-rule="evenodd" fill="#00C8FF" d="M203.438,26.198c0.876,2.199,3.904,2.061,6.134,1.575
	c0.317-2.079-0.389-13.754,4.896-13.525c5.285,0.23,5.815,6.597,4.437,12.342s-10.712,20.116-12.78,27.239
	c-1.518,5.231-3.136,16.961-3.9,24.375c-0.502,4.869,0.769,5.912,5.435,5.868l18.759-0.194c2.549-0.227,1.274-4.277,0-6.894
	l-17.005-0.919c0,0-1.22-9.827,1.538-16.951c2.758-7.123,15.218-24.602,15.378-31.391c0.159-6.79-1.52-20.369-9.792-20.829
	c-8.273-0.459-11.49,5.516-12.409,10.111C203.208,21.602,203.208,26.198,203.438,26.198"/>
<path fill-rule="evenodd" clip-rule="evenodd" fill="#00C8FF" d="M246.411,8.273v75.375c0.876,1.554,5.1,1.433,5.975-0.919
	l0.141-24.411c0,0,5.958,0.983,7.106,5.579c1.149,4.597,1.431,17.643,1.672,19.765s6.434,2.942,6.117-1.258
	c-0.564-16.702,0.052-25.167-9.291-28.86c0,0,9.192-8.962,8.963-20.912c-0.23-11.95-0.92-22.75-6.435-25.278
	C255.144,4.826,246.411,8.273,246.411,8.273"/>
<path fill-rule="evenodd" clip-rule="evenodd" fill="#00C8FF" d="M274.677,8.733c0,0-0.689,45.271,0.919,54.923
	c1.609,9.651,4.597,21.142,14.708,21.601c10.111,0.46,10.111-6.894,10.801-13.099c0.688-6.204,1.16-59.826,0.688-62.506
	c-0.471-2.68-6.148-2.013-6.434-0.23c-0.286,1.783,1.148,29.874,0.919,37.228c-0.229,7.354,0,28.955-3.906,30.104
	c-3.907,1.148-7.354,1.378-8.733-3.218s-2.793-61.884-2.298-64.115C281.837,7.191,274.942,6.732,274.677,8.733"/>
<path fill-rule="evenodd" clip-rule="evenodd" fill="#00C8FF" d="M237.449,83.648c0,0-3.678,0-4.137-3.217
	c-0.46-3.218,0.529-5.69,1.908-5.69s5.586,0.567,5.815,3.324C241.438,82.896,241.48,82.305,237.449,83.648"/>
<path fill-rule="evenodd" clip-rule="evenodd" fill="#050000" d="M0,11.526C12.285,8.401,67.015-7.71,73.997,4.525l7.092,12.427
	l3.769,16.191l-0.382,0.345l-38.322-9.532c0,0-5.983,1.051-5.279,2.711c2.336,5.509,7.509,12.572,12.109,17.575
	c6.091,0.057,14.31,0.923,18.341-0.433l46.075-15.497c3.828,0.926,6.439,7.746,8.232,11.938l-36.995,5.79
	c1.374,3.882,4.139,10.536,5.962,11.277c6.038,2.454,16.525,7.856,16.526,7.903c0,0,2.276-3.243,3.827-2.265
	c2.401,1.517-1.639,5.895-2.102,8.782c-0.18,1.124-1.167,3.924-1.082,6.512s-4.645,5.782-7.116,6.361
	c-2.472,0.578-2.77-2.582-2.77-2.582s2.006-0.557,4.004-2.037c-2.465,0.041-6.79,0.111-8.042,0.143s-1.064-3.893,0.955-4.818
	c2.018-0.926,4.131,1.938,6.726,0.707c2.594-1.23,4.182-7.732,4.182-7.732L89.352,58.291l-14.239-8.856L37.12,56.049
	c-3.841,0.668-6.165,2.956-6.689,4.625c-1.724,5.485-8.581,19.197-8.581,19.197s2.135,0.356,2.971,1.465
	c0.602,0.296,1.021,0.78,0.975,1.564c-0.149,2.02-3.901,1.44-6.128,1.238s-5.388-0.11-8.428,0.203
	C8.2,84.656,3.547,78.499,2.66,75.636c-0.887-2.863,2.529-2.979,2.529-2.979s1.138,1.874,3.099,4.15
	c-0.717-1.542-1.166-3.161-1.195-4.341c-0.073-2.914,3.155-2.12,3.155-2.12s-0.008,2.095,2.127,5.833
	c2.135,3.737,6.121,2.884,6.121,2.884c3.492-8.017,6.568-16.013,10.119-24.003l5.985-3.579l-6.592-22.675l2.937-8.126L0.132,12.615
	L0,11.526z"/>
</svg>
