<?xml version="1.0" encoding="utf-8"?>
<!-- Generator: Adobe Illustrator 18.1.0, SVG Export Plug-In . SVG Version: 6.00 Build 0)  -->
<svg version="1.1" id="Layer_1" xmlns="http://www.w3.org/2000/svg" xmlns:xlink="http://www.w3.org/1999/xlink" x="0px" y="0px"
	 viewBox="-245 372 99.8 28.2" enable-background="new -245 372 99.8 28.2" xml:space="preserve">
<path fill="#FFFFFF" d="M-230.2,379.7l17.2,4.3l-14.6,4.7l-5-8C-232.7,380.8-230.2,379.7-230.2,379.7"/>
<path fill="#FFFFFF" d="M-198.7,399l3.1-24.2c0.7-0.3,2.5-0.5,2.8,0.9c1,4.6,3.5,17.4,3.8,24c0,0.7-1.6,0.6-2.1-0.1l-1.3-7.5
	l-3.5-0.1l-0.5,7.4C-196.3,400.6-198.9,400.5-198.7,399"/>
<path fill="#FFFFFF" d="M-187.8,374.7c-0.2,0.6-0.1,7.8,0.3,10.8c0.2,1.7,0.6,2.2,2.8,2.5c1.1,0.2,2.4-0.2,2.4-0.2l0.2,11.6
	c0.4,0.7,1.9,0.6,2.2-0.2l-0.4-11.8c1.8,0.1,1.9-2.1-0.1-2l-0.3-10.5c-0.5-0.6-1.8-0.6-2,0.2l0.2,10.6c0,0-1.2,0.2-1.8,0.1
	c-1.7-0.1-1.2-8.9-1.3-11.1C-186,374.3-187.8,373.9-187.8,374.7"/>
<path fill="#FFFFFF" d="M-177.7,380.7c0.3,0.7,1.3,0.7,2,0.5c0.1-0.7-0.1-4.5,1.6-4.5c1.7,0.1,1.9,2.2,1.5,4.1
	c-0.5,1.9-3.5,6.7-4.2,9c-0.5,1.7-1,5.6-1.3,8.1c-0.2,1.6,0.3,2,1.8,1.9l6.2-0.1c0.8-0.1,0.4-1.4,0-2.3l-5.6-0.3
	c0,0-0.4-3.2,0.5-5.6c0.9-2.4,5-8.1,5.1-10.4c0.1-2.2-0.5-6.7-3.2-6.9c-2.7-0.2-3.8,1.8-4.1,3.3
	C-177.8,379.1-177.8,380.7-177.7,380.7"/>
<path fill="#FFFFFF" d="M-163.5,374.7v24.9c0.3,0.5,1.7,0.5,2-0.3l0-8.1c0,0,2,0.3,2.3,1.8c0.4,1.5,0.5,5.8,0.6,6.5
	c0.1,0.7,2.1,1,2-0.4c-0.2-5.5,0-8.3-3.1-9.5c0,0,3-3,3-6.9c-0.1-4-0.3-7.5-2.1-8.4C-160.6,373.6-163.5,374.7-163.5,374.7"/>
<path fill="#FFFFFF" d="M-154.2,374.9c0,0-0.2,15,0.3,18.2c0.5,3.2,1.5,7,4.9,7.1c3.3,0.2,3.3-2.3,3.6-4.3
	c0.2-2.1,0.4-19.8,0.2-20.7c-0.2-0.9-2-0.7-2.1-0.1c-0.1,0.6,0.4,9.9,0.3,12.3c-0.1,2.4,0,9.6-1.3,10c-1.3,0.4-2.4,0.5-2.9-1.1
	c-0.5-1.5-0.9-20.5-0.8-21.2C-151.8,374.4-154.1,374.2-154.2,374.9"/>
<path fill="#FFFFFF" d="M-166.5,399.7c0,0-1.2,0-1.4-1.1c-0.2-1.1,0.2-1.9,0.6-1.9c0.5,0,1.8,0.2,1.9,1.1
	C-165.2,399.4-165.2,399.2-166.5,399.7"/>
<path d="M-245,375.8c4.1-1,22.2-6.4,24.5-2.3l2.3,4.1l1.2,5.4l-0.1,0.1l-12.7-3.2c0,0-2,0.3-1.7,0.9c0.8,1.8,2.5,4.2,4,5.8
	c2,0,4.7,0.3,6.1-0.1l15.2-5.1c1.3,0.3,2.1,2.6,2.7,3.9l-12.2,1.9c0.5,1.3,1.4,3.5,2,3.7c2,0.8,5.5,2.6,5.5,2.6c0,0,0.8-1.1,1.3-0.7
	c0.8,0.5-0.5,1.9-0.7,2.9c-0.1,0.4-0.4,1.3-0.4,2.2c0,0.9-1.5,1.9-2.4,2.1c-0.8,0.2-0.9-0.9-0.9-0.9s0.7-0.2,1.3-0.7
	c-0.8,0-2.2,0-2.7,0c-0.4,0-0.4-1.3,0.3-1.6c0.7-0.3,1.4,0.6,2.2,0.2c0.9-0.4,1.4-2.6,1.4-2.6l-6.7-3.3l-4.7-2.9l-12.6,2.2
	c-1.3,0.2-2,1-2.2,1.5c-0.6,1.8-2.8,6.3-2.8,6.3s0.7,0.1,1,0.5c0.2,0.1,0.3,0.3,0.3,0.5c-0.1,0.7-1.3,0.5-2,0.4
	c-0.7-0.1-1.8,0-2.8,0.1c-1,0.1-2.5-1.9-2.8-2.9c-0.3-0.9,0.8-1,0.8-1s0.4,0.6,1,1.4c-0.2-0.5-0.4-1-0.4-1.4c0-1,1-0.7,1-0.7
	s0,0.7,0.7,1.9c0.7,1.2,2,1,2,1c1.2-2.6,2.2-5.3,3.3-7.9l2-1.2l-2.2-7.5l1-2.7l-10.2-2.7L-245,375.8z"/>
</svg>
