<?xml version="1.0" encoding="utf-8"?>
<!-- Generator: Adobe Illustrator 16.0.0, SVG Export Plug-In . SVG Version: 6.00 Build 0)  -->
<!DOCTYPE svg PUBLIC "-//W3C//DTD SVG 1.1//EN" "http://www.w3.org/Graphics/SVG/1.1/DTD/svg11.dtd">
<svg version="1.1" id="Layer_1" xmlns="http://www.w3.org/2000/svg" xmlns:xlink="http://www.w3.org/1999/xlink" x="0px" y="0px"
	 width="120px" height="50px" viewBox="0 0 120 50" enable-background="new 0 0 120 50" xml:space="preserve">
<path fill="#33C4F3" d="M4,0h112c2.209,0,4,1.791,4,4v42c0,2.209-1.791,4-4,4H4c-2.209,0-4-1.791-4-4V4C0,1.791,1.791,0,4,0z"/>
<path fill="#FFFFFF" d="M23.715,17.734l17.219,4.342l-14.637,4.723l-5.046-8.038C21.252,18.761,23.715,17.676,23.715,17.734"/>
<path fill="#FFFFFF" d="M55.214,37.008l3.105-24.24c0.67-0.335,2.542-0.509,2.844,0.903c0.984,4.595,3.511,17.407,3.838,23.999
	c0.034,0.698-1.614,0.563-2.052-0.137l-1.304-7.494l-3.466-0.099l-0.458,7.448C57.595,38.601,55.025,38.534,55.214,37.008"/>
<path fill="#FFFFFF" d="M66.169,12.669c-0.23,0.564-0.094,7.809,0.26,10.753c0.204,1.714,0.592,2.232,2.77,2.543
	c1.062,0.151,2.365-0.228,2.365-0.228l0.229,11.625c0.366,0.724,1.898,0.584,2.204-0.229l-0.371-11.848
	c1.824,0.082,1.865-2.111-0.062-1.968L73.235,12.82c-0.475-0.626-1.809-0.575-1.976,0.152l0.152,10.56c0,0-1.2,0.168-1.806,0.12
	c-1.717-0.136-1.213-8.889-1.279-11.066C67.894,12.353,66.169,11.872,66.169,12.669"/>
<path fill="#FFFFFF" d="M76.198,18.671c0.289,0.728,1.292,0.682,2.029,0.521c0.104-0.687-0.129-4.547,1.619-4.472
	c1.748,0.076,1.922,2.181,1.465,4.081c-0.455,1.9-3.541,6.652-4.225,9.006c-0.502,1.729-1.037,5.608-1.29,8.058
	c-0.166,1.61,0.253,1.954,1.796,1.94l6.203-0.063c0.842-0.076,0.42-1.414,0-2.279l-5.623-0.304c0,0-0.404-3.249,0.508-5.604
	c0.911-2.355,5.031-8.134,5.084-10.379c0.053-2.245-0.502-6.734-3.236-6.886c-2.735-0.152-3.799,1.823-4.104,3.343
	C76.122,17.152,76.122,18.671,76.198,18.671"/>
<path fill="#FFFFFF" d="M90.405,12.745v24.921c0.291,0.515,1.688,0.474,1.977-0.304l0.047-8.071c0,0,1.969,0.325,2.348,1.845
	c0.382,1.52,0.474,5.832,0.555,6.534c0.079,0.702,2.127,0.974,2.021-0.416c-0.187-5.522,0.018-8.321-3.072-9.542
	c0,0,3.039-2.963,2.964-6.914c-0.077-3.951-0.304-7.522-2.127-8.358C93.293,11.605,90.405,12.745,90.405,12.745"/>
<path fill="#FFFFFF" d="M99.752,12.897c0,0-0.228,14.968,0.304,18.159s1.52,6.989,4.862,7.141c3.342,0.152,3.342-2.278,3.571-4.33
	c0.228-2.053,0.383-19.78,0.228-20.666c-0.157-0.886-2.034-0.666-2.127-0.076c-0.094,0.59,0.379,9.877,0.304,12.308
	c-0.076,2.432,0,9.573-1.291,9.954c-1.293,0.379-2.432,0.455-2.888-1.064c-0.456-1.519-0.924-20.459-0.759-21.197
	C102.118,12.387,99.839,12.236,99.752,12.897"/>
<path fill="#FFFFFF" d="M87.442,37.666c0,0-1.215,0-1.367-1.063c-0.152-1.064,0.175-1.883,0.63-1.883c0.456,0,1.847,0.188,1.923,1.1
	C88.763,37.417,88.776,37.222,87.442,37.666"/>
<path d="M8.937,13.82c4.062-1.033,22.157-6.36,24.465-2.314l2.344,4.109l1.246,5.354l-0.125,0.114l-12.67-3.151
	c0,0-1.979,0.347-1.745,0.896c0.772,1.821,2.482,4.156,4.004,5.811c2.014,0.019,4.731,0.305,6.064-0.143l15.233-5.124
	c1.265,0.306,2.129,2.561,2.722,3.947l-12.231,1.914c0.455,1.283,1.369,3.484,1.971,3.728c1.997,0.812,5.464,2.599,5.464,2.613
	c0,0,0.753-1.072,1.265-0.749c0.794,0.501-0.542,1.949-0.694,2.904c-0.06,0.371-0.385,1.297-0.358,2.152s-1.536,1.912-2.353,2.104
	s-0.917-0.854-0.917-0.854s0.664-0.184,1.325-0.673c-0.815,0.013-2.245,0.036-2.659,0.046c-0.414,0.012-0.353-1.287,0.316-1.593
	c0.667-0.306,1.366,0.641,2.224,0.233c0.857-0.406,1.382-2.557,1.382-2.557l-6.731-3.306l-4.708-2.929L21.21,28.542
	c-1.27,0.221-2.038,0.977-2.211,1.529c-0.57,1.813-2.837,6.347-2.837,6.347s0.705,0.118,0.982,0.483
	c0.199,0.099,0.338,0.258,0.323,0.517c-0.05,0.668-1.291,0.478-2.026,0.41s-1.781-0.037-2.786,0.067
	C11.65,38,10.112,35.964,9.818,35.017c-0.293-0.947,0.836-0.984,0.836-0.984s0.375,0.619,1.023,1.371
	c-0.236-0.508-0.385-1.043-0.394-1.435c-0.025-0.963,1.042-0.7,1.042-0.7s-0.003,0.692,0.703,1.928
	c0.706,1.236,2.024,0.953,2.024,0.953c1.154-2.65,2.17-5.293,3.346-7.936l1.979-1.184l-2.18-7.496l0.97-2.687L8.98,14.181
	L8.937,13.82z"/>
</svg>
