<?xml version="1.0" encoding="utf-8"?>
<!-- Generator: Adobe Illustrator 16.0.0, SVG Export Plug-In . SVG Version: 6.00 Build 0)  -->
<!DOCTYPE svg PUBLIC "-//W3C//DTD SVG 1.1//EN" "http://www.w3.org/Graphics/SVG/1.1/DTD/svg11.dtd">
<svg version="1.1" id="Layer_1" xmlns="http://www.w3.org/2000/svg" xmlns:xlink="http://www.w3.org/1999/xlink" x="0px" y="0px"
	 width="19.993px" height="13.998px" viewBox="0 0 19.993 13.998" enable-background="new 0 0 19.993 13.998" xml:space="preserve">
<path fill="#0668B2" d="M0.139,11.07c0.568-1.488,0.727-2.943,0.587-4.521c-0.322-3.64,2.691-5.503,5.158-5.71
	C7.303,0.72,8.74,0.86,10.17,0.825c0.414-0.011,0.87-0.148,1.226-0.364c1.083-0.659,1.634-0.637,2.562,0.231
	c0.923,0.865,2.727,1.232,3.886,0.76c0.144-0.289,0.374-0.405,0.627-0.322c0.474,0.156,0.269,0.557,0.123,0.856
	c0.251,0.259,0.483,0.549,0.58,0.75c0.227,0.474-0.202,1.471-0.013,1.959c0.17,0.435,0.729,0.365,0.817,0.815
	c0.06,0.299-0.065,0.412-0.164,0.624c-0.389,0.841-1.03,0.234-1.6,0.209c0.062,0.158,0.117,0.296,0.199,0.504
	c-1.007,0.293-2.09,0.464-2.886-0.129c-1.191-0.89-0.692-2.225-0.396-3.433c-0.839,1.041-0.668,2.158-0.258,3.334
	c-0.787,0.12-1.2,0.558-1.32,1.294c-0.021,0.13-0.18,0.269-0.309,0.345c-1.26,0.742-1.615,1.948-1.711,3.293
	c-0.086,1.216-0.083,1.216,1.064,1.476c0.106,0.024,0.243,0.021,0.313,0.087c0.149,0.142,0.265,0.318,0.396,0.481
	c-0.159,0.121-0.309,0.329-0.478,0.348c-0.519,0.058-1.043,0.061-1.563,0.049c-1.438-0.027-2.096-0.503-2.53-1.89
	C8.44,11.16,8.214,10.197,7.938,9.168C7.394,9.379,6.875,9.63,6.33,9.777c-0.581,0.157-1.189,0.209-1.783,0.327
	c-0.146,0.029-0.308,0.104-0.408,0.21c-0.541,0.562-1.054,1.155-1.601,1.712c-0.327,0.333-0.417,0.557,0.097,0.794
	c0.258,0.119,0.452,0.372,0.675,0.564c-0.311,0.177-0.606,0.479-0.932,0.512C0.826,14.051-0.428,12.547,0.139,11.07z"/>
<path fill="#0668B2" d="M15.51,7.129c0.394-0.038,0.809,0.188,1.206,0.166c0.593-0.034,0.986,0.175,1.294,0.661
	c0.278,0.44,0.697,0.814,0.881,1.286c0.374,0.963,0.673,1.962,0.916,2.968c0.114,0.479-0.086,1.04-0.665,1.007
	c-0.312-0.019-0.679-0.424-0.88-0.744c-0.192-0.309-0.206-0.729-0.272-0.997c-0.834-0.35-1.62-0.528-2.211-0.971
	c-0.576-0.434-0.874-1.236-1.441-1.689c-0.56-0.446-0.434-0.981-0.17-1.255C14.457,7.259,15.041,7.176,15.51,7.129z"/>
<path fill="#0668B2" d="M7.562,12.254c0.238,0.062,0.534,0.11,0.812,0.214c0.379,0.142,0.554,0.403,0.215,0.743
	C8.2,13.6,5.623,13.365,5.267,12.928c-0.066-0.082-0.114-0.189-0.14-0.293c-0.166-0.688-0.322-1.376-0.479-2.056
	c1.016-0.245,2.013-0.486,3.141-0.76C7.71,10.638,7.639,11.413,7.562,12.254z"/>
</svg>
