<?xml version="1.0" encoding="utf-8"?>
<!-- Generator: Adobe Illustrator 16.0.0, SVG Export Plug-In . SVG Version: 6.00 Build 0)  -->
<!DOCTYPE svg PUBLIC "-//W3C//DTD SVG 1.1//EN" "http://www.w3.org/Graphics/SVG/1.1/DTD/svg11.dtd">
<svg version="1.1" id="Layer_1" xmlns="http://www.w3.org/2000/svg" xmlns:xlink="http://www.w3.org/1999/xlink" x="0px" y="0px"
	 width="21.002px" height="12.998px" viewBox="0 0 21.002 12.998" enable-background="new 0 0 21.002 12.998" xml:space="preserve">
<path fill="#008652" d="M6.721,2.67c1.581,0,3.131,0,4.707,0c0-0.3,0-0.593,0-0.896c1.237,0,2.45,0,3.675,0c0,0.399,0,0.795,0,1.213
	c-0.287,0-0.577,0-0.894,0c0.035,0.076,0.053,0.125,0.08,0.17c0.404,0.697,0.812,1.392,1.213,2.093
	c0.072,0.128,0.139,0.146,0.278,0.102c2.302-0.73,4.718,0.693,5.156,3.035c0.422,2.244-1.27,4.406-3.585,4.583
	c-2.055,0.157-3.813-1.127-4.253-3.104c-0.026-0.122-0.082-0.151-0.207-0.168c-0.261-0.033-0.427,0.067-0.58,0.263
	c-0.104,0.134-0.312,0.205-0.204,0.45c0.214,0,0.442,0,0.685,0c0,0.42,0,0.819,0,1.229c-0.656,0-1.305,0-1.971,0
	c-0.006-0.051-0.018-0.103-0.018-0.154c-0.002-0.261-0.012-0.521,0.002-0.781c0.019-0.321-0.001-0.598-0.307-0.823
	c-0.245-0.183-0.299-0.498-0.33-0.799c-0.007-0.077-0.047-0.177-0.105-0.22C9.17,8.213,8.272,7.57,7.336,6.898
	C7.369,6.976,7.379,7.017,7.4,7.051c1.397,2.329,0.134,5.229-2.551,5.847c-2.259,0.521-4.521-1.039-4.815-3.315
	C-0.232,7.542,1.1,5.676,3.158,5.25c0.396-0.082,0.816-0.059,1.229-0.062c0.146-0.001,0.203-0.033,0.248-0.171
	c0.509-1.595,1.029-3.185,1.537-4.778C6.228,0.058,6.304-0.003,6.503,0C7.316,0.013,8.127,0.009,8.94,0.003
	c0.15-0.001,0.213,0.034,0.206,0.193c-0.013,0.288-0.012,0.576,0,0.865c0.005,0.15-0.038,0.203-0.199,0.201
	c-0.524-0.01-1.05,0-1.574-0.006C7.232,1.254,7.164,1.286,7.122,1.431C7,1.839,6.859,2.244,6.721,2.67z M5.387,6.799
	c-0.172,0.527-0.351,1.054-0.51,1.583C4.841,8.503,4.845,8.652,4.882,8.773C5.027,9.24,4.813,9.73,4.364,9.92
	c-0.453,0.191-0.975,0.02-1.21-0.405c-0.234-0.421-0.1-0.938,0.309-1.22c0.082-0.058,0.152-0.156,0.186-0.25
	c0.16-0.46,0.308-0.924,0.455-1.389c0.024-0.074,0.04-0.152,0.061-0.23C3.078,6.279,1.64,7.031,1.311,8.54
	c-0.286,1.317,0.553,2.708,1.883,3.092c1.396,0.403,2.852-0.304,3.354-1.642C7.064,8.617,6.317,7.272,5.387,6.799z M12.727,3.933
	c-0.117,0-0.2,0-0.284,0c-1.917,0-3.833,0-5.75,0c-0.379,0-0.37,0.005-0.502,0.365C6.134,4.45,6.172,4.524,6.3,4.614
	C7.793,5.678,9.28,6.751,10.769,7.82c0.228,0.162,0.434,0.104,0.528-0.146c0.146-0.384,0.295-0.77,0.441-1.152
	C12.064,5.67,12.389,4.817,12.727,3.933z M14.368,9.702c0.295,1.445,1.875,2.343,3.383,1.945c1.481-0.391,2.342-1.992,1.835-3.437
	c-0.524-1.493-2.125-2.088-3.337-1.688c0.307,0.524,0.608,1.049,0.92,1.568c0.03,0.052,0.104,0.085,0.164,0.109
	c0.38,0.155,0.581,0.437,0.618,0.833c0.02,0.215,0.034,0.43,0.053,0.646c-0.094,0.023-0.261,0.023-0.373,0.103
	c-0.422,0.293-0.83,0.3-1.254-0.012c-0.042-0.031-0.098-0.062-0.146-0.062C15.615,9.7,15,9.702,14.368,9.702z M14.499,6.021
	c-0.246-0.42-0.479-0.819-0.732-1.251c-0.04,0.101-0.062,0.155-0.084,0.212c-0.378,0.99-0.743,1.987-1.142,2.972
	c-0.208,0.512-0.045,0.505,0.37,0.498c0.131-0.002,0.16-0.062,0.188-0.165c0.062-0.224,0.12-0.448,0.203-0.666
	C13.545,6.985,13.96,6.468,14.499,6.021z M14.361,8.433c0.512,0,1.008,0,1.539,0c-0.263-0.45-0.509-0.873-0.763-1.311
	C14.746,7.498,14.485,7.92,14.361,8.433z"/>
</svg>
