<?xml version="1.0" encoding="utf-8"?>
<!-- Generator: Adobe Illustrator 16.0.0, SVG Export Plug-In . SVG Version: 6.00 Build 0)  -->
<!DOCTYPE svg PUBLIC "-//W3C//DTD SVG 1.1//EN" "http://www.w3.org/Graphics/SVG/1.1/DTD/svg11.dtd">
<svg version="1.1" id="Layer_1" xmlns="http://www.w3.org/2000/svg" xmlns:xlink="http://www.w3.org/1999/xlink" x="0px" y="0px"
	 width="18.041px" height="12.968px" viewBox="0 0 18.041 12.968" enable-background="new 0 0 18.041 12.968" xml:space="preserve">
<path fill="#0668B2" d="M12.158,4.356c-1.346,0-2.44,1.131-2.443,2.519c0,1.39,1.084,2.521,2.397,2.544
	c1.31,0.021,2.483-1.065,2.486-2.531C14.602,5.49,13.507,4.357,12.158,4.356z"/>
<path fill="#0668B2" d="M18.036,3.15c-0.002-0.751-0.553-1.399-1.306-1.515c-0.385-0.058-0.784-0.051-1.177-0.032
	c-0.261,0.014-0.403-0.065-0.502-0.301c-0.08-0.194-0.196-0.375-0.312-0.552c-0.304-0.468-0.743-0.729-1.3-0.738
	c-0.941-0.016-1.883-0.016-2.824,0c-0.565,0.011-1.01,0.275-1.312,0.752c-0.138,0.22-0.267,0.444-0.382,0.675
	C8.859,1.566,8.777,1.6,8.644,1.599C7.455,1.594,6.267,1.596,5.077,1.596c-0.064,0-0.129,0-0.219,0c0-0.312,0-0.607,0-0.904
	c-0.945,0-1.869,0-2.811,0c0,0.306,0,0.595,0,0.904c-0.124,0-0.216,0-0.311,0C0.666,1.596,0,2.255,0,3.316c0,2.568,0,5.382,0,7.951
	c0,1.033,0.675,1.7,1.719,1.7c3.198,0,6.397,0,9.597,0c1.696,0,3.395,0.002,5.091-0.001c0.898-0.001,1.624-0.674,1.627-1.545
	C18.044,8.743,18.042,5.825,18.036,3.15z M4.217,10.236c-0.003,0.378-0.307,0.638-0.712,0.62c-0.348-0.015-0.637-0.241-0.639-0.563
	C2.854,8.279,2.853,6.268,2.865,4.256c0.001-0.351,0.317-0.581,0.7-0.57c0.379,0.011,0.648,0.257,0.651,0.613
	C4.22,5.292,4.218,6.285,4.218,7.278C4.218,8.264,4.22,9.25,4.217,10.236z M12.086,10.856c-2.061-0.034-3.761-1.81-3.759-3.988
	c0.002-2.177,1.723-3.949,3.831-3.949c2.114,0.001,3.833,1.777,3.827,3.97C15.981,9.187,14.141,10.89,12.086,10.856z"/>
</svg>
