<?xml version="1.0" encoding="utf-8"?>
<!-- Generator: Adobe Illustrator 16.0.0, SVG Export Plug-In . SVG Version: 6.00 Build 0)  -->
<!DOCTYPE svg PUBLIC "-//W3C//DTD SVG 1.1//EN" "http://www.w3.org/Graphics/SVG/1.1/DTD/svg11.dtd">
<svg version="1.1" id="Layer_1" xmlns="http://www.w3.org/2000/svg" xmlns:xlink="http://www.w3.org/1999/xlink" x="0px" y="0px"
	 width="8.998px" height="9px" viewBox="0 0 8.998 9" enable-background="new 0 0 8.998 9" xml:space="preserve">
<path fill="#D62928" d="M7.563,1.22C6.494,2.29,5.429,3.354,4.368,4.415C3.9,3.945,3.428,3.473,2.965,3.011
	C2.552,3.424,2.158,3.819,1.773,4.205C2.629,5.061,3.501,5.932,4.38,6.812c1.389-1.389,2.789-2.789,4.191-4.191
	c0.83,1.666,0.516,4.179-1.535,5.592c-1.94,1.336-4.638,0.953-6.13-1.007c-1.451-1.907-1.127-4.65,0.742-6.182
	C3.503-0.499,6.065-0.23,7.563,1.22z"/>
</svg>
