<?xml version="1.0" encoding="utf-8"?>
<!-- Generator: Adobe Illustrator 16.0.0, SVG Export Plug-In . SVG Version: 6.00 Build 0)  -->
<!DOCTYPE svg PUBLIC "-//W3C//DTD SVG 1.1//EN" "http://www.w3.org/Graphics/SVG/1.1/DTD/svg11.dtd">
<svg version="1.1" id="Layer_1" xmlns="http://www.w3.org/2000/svg" xmlns:xlink="http://www.w3.org/1999/xlink" x="0px" y="0px"
	 width="17.694px" height="20.694px" viewBox="0 0 17.694 20.694" enable-background="new 0 0 17.694 20.694" xml:space="preserve">
<path fill="#A61E22" d="M0.651,7.923v5.013H0.66l0.011,5.755c0,1.104,0.896,2.002,2.002,2.002h13.019
	c1.105,0,2.002-0.896,2.002-2.002v-1.943v-0.668v-3.144V7.923H0.651z M13.456,9.303h2.633l-1.066,2.129h-2.631L13.456,9.303z
	 M8.171,9.303h2.632l-1.066,2.129H7.105L8.171,9.303z M2.885,9.303h2.632l-1.066,2.129H1.82L2.885,9.303z M16.272,16.081v0.668
	v1.943c0,0.321-0.261,0.583-0.583,0.583H2.672c-0.322,0-0.583-0.262-0.583-0.583l0.014-5.755h14.171L16.272,16.081L16.272,16.081z"
	/>
<path fill="#A61E22" d="M17.009,3.274l-0.165-0.647L16.56,1.51c-0.273-1.071-1.362-1.721-2.434-1.447L1.509,3.271
	c-1.071,0.271-1.72,1.362-1.446,2.433l0.449,1.768C0.531,7.546,0.594,7.736,0.62,7.806l0.03,0.12l16.475-4.19L17.009,3.274z
	 M2.508,6.332L0.95,4.531L3.5,3.884l1.558,1.801L2.508,6.332z M7.63,5.029l-1.557-1.8l2.55-0.649l1.558,1.803L7.63,5.029z
	 M12.753,3.727l-1.557-1.802l2.55-0.648l1.559,1.801L12.753,3.727z"/>
</svg>
