<?xml version="1.0" encoding="utf-8"?>
<!-- Generator: Adobe Illustrator 16.0.0, SVG Export Plug-In . SVG Version: 6.00 Build 0)  -->
<!DOCTYPE svg PUBLIC "-//W3C//DTD SVG 1.1//EN" "http://www.w3.org/Graphics/SVG/1.1/DTD/svg11.dtd">
<svg version="1.1" id="Layer_1" xmlns="http://www.w3.org/2000/svg" xmlns:xlink="http://www.w3.org/1999/xlink" x="0px" y="0px"
	 width="15.57px" height="15.575px" viewBox="0 0 15.57 15.575" enable-background="new 0 0 15.57 15.575" xml:space="preserve">
<path fill="#A61E22" d="M14.735,1.536h-2.017V0H7.87C6.48,0,5.089,0,3.699,0H3.04v0.562C3.039,0.6,3.03,0.624,3.031,0.666
	C3.034,0.8,3.037,0.936,3.04,1.068v0.466H0.836C0.374,1.534,0,1.982,0,2.536v2.549c0,1.498,1.922,2.71,3.419,2.71h0.899
	c0.003,0.004,0.004,0.007,0.007,0.012c0.763,1.021,1.642,1.92,2.625,2.717c0.061,0.049,0.114,0.102,0.16,0.155v2.344l-4.268,0.656
	v0.875h9.968v-0.875l-4.282-0.656v-2.144c0.061-0.132,0.151-0.257,0.278-0.376c0.728-0.682,1.467-1.356,2.13-2.102
	c0.174-0.194,0.334-0.398,0.485-0.606h0.797c1.497,0,3.352-1.213,3.352-2.71V2.536C15.571,1.982,15.197,1.536,14.735,1.536z
	 M3.42,6.377c-0.712,0-2.001-0.58-2.001-1.292V2.954h1.672c0.014,0.416,0.025,0.83,0.047,1.245C3.177,4.96,3.317,5.687,3.572,6.378
	L3.42,6.377L3.42,6.377z M14.153,5.085c0,0.712-1.221,1.292-1.934,1.292h-0.031c0.12-0.321,0.219-0.653,0.271-1.01
	c0.121-0.802,0.192-1.607,0.229-2.415h1.464L14.153,5.085L14.153,5.085z"/>
<path fill="#A61E22" d="M12.811,14.7c0,0.484-0.393,0.875-0.876,0.875H3.718c-0.484,0-0.875-0.392-0.875-0.875l0,0
	c0-0.483,0.392-0.876,0.875-0.876h8.217C12.419,13.824,12.811,14.216,12.811,14.7L12.811,14.7z"/>
<path fill="#A61E22" d="M12.811,13.68c0,0.483-0.393,0.875-0.876,0.875H3.718c-0.484,0-0.875-0.392-0.875-0.875l0,0
	c0-0.483,0.392-0.876,0.875-0.876h8.217C12.419,12.804,12.811,13.195,12.811,13.68L12.811,13.68z"/>
</svg>
