<?xml version="1.0" encoding="utf-8"?>
<!-- Generator: Adobe Illustrator 16.0.0, SVG Export Plug-In . SVG Version: 6.00 Build 0)  -->
<!DOCTYPE svg PUBLIC "-//W3C//DTD SVG 1.1//EN" "http://www.w3.org/Graphics/SVG/1.1/DTD/svg11.dtd">
<svg version="1.1" id="Layer_1" xmlns="http://www.w3.org/2000/svg" xmlns:xlink="http://www.w3.org/1999/xlink" x="0px" y="0px"
	 width="17.046px" height="20.46px" viewBox="0 0 17.046 20.46" enable-background="new 0 0 17.046 20.46" xml:space="preserve">
<path fill="#A61E22" d="M10.21,3.578c0.006-0.058,0.017-0.111,0.017-0.169c0-0.688-0.408-1.276-0.993-1.546V0H7.78v1.882
	C7.214,2.159,6.818,2.736,6.818,3.41c0,0.058,0.011,0.111,0.018,0.168C2.937,4.361,0,7.805,0,11.934
	c0,4.708,3.815,8.526,8.522,8.526c4.708,0,8.524-3.818,8.524-8.526C17.046,7.804,14.109,4.361,10.21,3.578z M2.478,11.029
	c0.001,0.593,0.001,1.152-0.005,1.707l-0.306,0.001c-0.26,0-0.534-0.006-0.795-0.049c-0.276-0.046-0.354-0.271-0.37-0.45
	L0.98,12.022c-0.014-0.13-0.028-0.259-0.033-0.389c-0.016-0.456,0.073-0.575,0.498-0.665c0.293-0.062,0.591-0.099,0.906-0.139
	l0.127-0.016V11.029z M2.52,7.412C2.404,7.457,2.245,7.391,2.104,7.378C2.101,7.339,2.096,7.301,2.092,7.264
	C2.745,6.647,3.4,6.032,4.069,5.398c0.086,0.548-0.176,1.234-0.634,1.559C3.16,7.151,2.837,7.287,2.52,7.412z M5.915,16.748
	c-0.451-0.083-0.879-0.161-1.3-0.266c-0.27-0.065-0.472-0.274-0.552-0.571c-0.131-0.484-0.24-0.976-0.354-1.485l-0.073-0.324
	l2.283,0.219l0.24,2.475L5.915,16.748z M6.16,7.205C6.083,7.952,6.01,8.643,5.978,9.299C5.335,9.377,4.69,9.442,4.03,9.508
	L3.801,9.53C3.735,8.961,3.749,8.474,3.954,8.015c0.178-0.393,0.505-0.562,0.749-0.634c0.405-0.12,0.818-0.213,1.252-0.312
	c0.074-0.016,0.149-0.033,0.225-0.05L6.16,7.205z M5.839,6.134c-0.154,0.051-0.314,0.092-0.476,0.12
	C5.104,6.3,4.845,6.339,4.574,6.38c0.205-0.886,1.02-1.603,1.973-1.719C6.563,4.834,6.579,5.007,6.572,5.18
	C6.554,5.719,6.369,5.959,5.839,6.134z M7.577,4.607c0.039-0.094,0.119-0.205,0.387-0.222c0.313-0.024,0.628-0.018,0.941-0.013
	C9.214,4.378,9.281,4.55,9.306,4.679c0.062,0.325,0.105,0.653,0.151,0.992l0.018,0.138H7.398C7.402,5.382,7.421,4.979,7.577,4.607z
	 M9.506,18.093c-0.034,0.258-0.066,0.512-0.093,0.767c-0.039,0.394-0.157,0.524-0.525,0.583c-0.255,0.04-0.502,0.062-0.735,0.062
	l-0.012,0.283v-0.283c-0.323,0-0.409-0.064-0.488-0.359c-0.081-0.302-0.137-0.609-0.197-0.931l-0.022-0.123h2.074L9.506,18.093z
	 M9.884,13.27H6.971v-2.887h2.913V13.27z M6.994,9.246l0.134-1.522c0.013-0.146,0.035-0.292,0.064-0.436
	c0.043-0.227,0.216-0.395,0.409-0.4C8.176,6.869,8.755,6.87,9.33,6.89c0.175,0.006,0.364,0.172,0.386,0.335
	c0.073,0.569,0.135,1.138,0.197,1.717l0.033,0.305L6.994,9.246L6.994,9.246z M15.829,9.92l-0.093-0.013
	c-0.344-0.045-0.67-0.086-0.989-0.159c-0.067-0.017-0.184-0.115-0.201-0.16c-0.108-0.452-0.185-0.906-0.265-1.388L14.26,8.081
	C15.102,8.326,15.736,9.065,15.829,9.92z M13.137,8.078c0.09,0.4,0.157,0.807,0.228,1.229l0.037,0.216L12.05,9.417
	c-0.35-0.028-0.699-0.058-1.062-0.124c-0.086-0.661-0.16-1.325-0.238-2.03l-0.021-0.185l0.272,0.045
	c0.491,0.079,0.965,0.155,1.432,0.251C12.807,7.451,13.05,7.694,13.137,8.078z M13.587,10.592c-0.005,0.394-0.005,0.789-0.005,1.183
	c0,0.417,0,0.833-0.03,1.278c-0.748,0.083-1.498,0.153-2.264,0.226l-0.234,0.022v-2.944l1.471,0.136
	C12.863,10.525,13.202,10.557,13.587,10.592z M12.434,6.249c-0.854,0.054-1.4-0.062-1.693-0.369
	c-0.235-0.248-0.348-0.654-0.346-1.267C11.337,4.683,12.248,5.427,12.434,6.249z M10.376,19.225
	c0.001-0.018,0.002-0.036,0.003-0.055c0.014-0.271,0.027-0.527,0.07-0.772c0.048-0.279,0.251-0.464,0.604-0.55
	c0.408-0.1,0.823-0.175,1.243-0.251l0.146-0.027C12.171,18.56,11.555,19.049,10.376,19.225z M12.386,16.513
	c-0.441,0.092-0.885,0.171-1.35,0.253l-0.299,0.053c0.022-0.257,0.043-0.493,0.066-0.729l0.015-0.154
	c0.053-0.528,0.106-1.059,0.189-1.591c0.71-0.076,1.421-0.141,2.133-0.205l0.29-0.027l-0.044,0.288
	c-0.068,0.441-0.136,0.89-0.226,1.332C13.075,16.16,12.814,16.422,12.386,16.513z M13.303,18.278
	c-0.195-0.98,0.639-1.838,1.729-1.828C14.449,17.066,13.884,17.663,13.303,18.278z M15.569,14.807
	c-0.29,0.45-0.768,0.79-1.369,0.979c0.008-0.055,0.016-0.107,0.022-0.161c0.059-0.425,0.115-0.827,0.204-1.225
	c0.033-0.147,0.135-0.361,0.639-0.506c0.243-0.069,0.491-0.123,0.738-0.177l0.043-0.009C15.879,14.095,15.786,14.469,15.569,14.807z
	 M15.604,12.786c-0.075,0.014-0.662,0.007-0.876-0.008l-0.026-0.001v-1.981l1.356,0.255c0.001,0.084,0.002,0.169,0.004,0.253
	c0.006,0.372,0.013,0.724-0.015,1.077C16.03,12.605,15.96,12.722,15.604,12.786z"/>
</svg>
