<?xml version="1.0" encoding="utf-8"?>
<!-- Generator: Adobe Illustrator 16.0.0, SVG Export Plug-In . SVG Version: 6.00 Build 0)  -->
<!DOCTYPE svg PUBLIC "-//W3C//DTD SVG 1.1//EN" "http://www.w3.org/Graphics/SVG/1.1/DTD/svg11.dtd">
<svg version="1.1" id="Layer_1" xmlns="http://www.w3.org/2000/svg" xmlns:xlink="http://www.w3.org/1999/xlink" x="0px" y="0px"
	 width="19.631px" height="19.165px" viewBox="0 0 19.631 19.165" enable-background="new 0 0 19.631 19.165" xml:space="preserve">
<path fill="#008652" d="M16.756,0c-1.587,0-2.872,1.272-2.872,2.841H3.009l5.809,5.747l5.15-5.095
	c0.002,0.008,0.006,0.015,0.008,0.022l1.269-1.255c0.219-0.215,0.57-0.215,0.788,0c0.219,0.215,0.219,0.564,0,0.779l-1.542,1.527
	c0.001,0.002,0.002,0.004,0.004,0.006l-5.676,5.614L1.292,2.739c-0.295-0.292-0.774-0.292-1.07,0s-0.295,0.767,0,1.06l7.841,7.758
	v6.108H3.118c-0.418,0-0.757,0.336-0.757,0.75c0,0.414,0.339,0.75,0.757,0.75h11.403c0.418,0,0.757-0.336,0.757-0.75
	c0-0.414-0.339-0.75-0.757-0.75H9.577v-6.108l6.143-6.074c0.323,0.125,0.672,0.199,1.041,0.199c1.586,0,2.871-1.271,2.871-2.841
	C19.628,1.273,18.342,0,16.756,0z"/>
</svg>
