<?xml version="1.0" encoding="utf-8"?>
<!-- Generator: Adobe Illustrator 16.0.0, SVG Export Plug-In . SVG Version: 6.00 Build 0)  -->
<!DOCTYPE svg PUBLIC "-//W3C//DTD SVG 1.1//EN" "http://www.w3.org/Graphics/SVG/1.1/DTD/svg11.dtd">
<svg version="1.1" id="Layer_1" xmlns="http://www.w3.org/2000/svg" xmlns:xlink="http://www.w3.org/1999/xlink" x="0px" y="0px"
	 width="13.022px" height="19.998px" viewBox="0 0 13.022 19.998" enable-background="new 0 0 13.022 19.998" xml:space="preserve">
<path fill="#008652" d="M8.405,8.606c0.436-0.855,0.786-1.747,0.848-2.718C9.37,4.012,8.795,2.366,7.562,0.972
	C7.259,0.63,6.902,0.338,6.546,0C6.521,0.086,6.511,0.105,6.51,0.126C6.475,0.995,6.2,1.795,5.822,2.563
	C5.184,3.865,4.329,5.021,3.488,6.188c-0.949,1.317-1.927,2.617-2.657,4.083c-0.441,0.888-0.78,1.811-0.824,2.815
	c-0.062,1.447,0.314,2.775,1.104,3.979c0.437,0.664,0.971,1.229,1.647,1.717c0.056-1.458,0.671-2.659,1.403-3.8
	c0.579-0.9,1.205-1.771,1.825-2.644C6.849,11.132,7.73,9.938,8.405,8.606z"/>
<path fill="#008652" d="M13.017,13.113c-0.081-1.909-0.77-3.652-1.521-5.417c-0.03,0.072-0.048,0.099-0.056,0.127
	c-0.166,0.7-0.445,1.354-0.776,1.987c-0.658,1.263-1.507,2.396-2.315,3.556c-0.788,1.129-1.566,2.266-2.294,3.437
	c-0.525,0.844-0.872,1.775-0.949,2.793c-0.014,0.186,0.021,0.266,0.213,0.297c0.683,0.116,1.362,0.141,2.049,0.05
	C10.672,19.509,13.161,16.522,13.017,13.113z"/>
</svg>
