<?xml version="1.0" encoding="utf-8"?>
<!-- Generator: Adobe Illustrator 16.0.0, SVG Export Plug-In . SVG Version: 6.00 Build 0)  -->
<!DOCTYPE svg PUBLIC "-//W3C//DTD SVG 1.1//EN" "http://www.w3.org/Graphics/SVG/1.1/DTD/svg11.dtd">
<svg version="1.1" id="Layer_1" xmlns="http://www.w3.org/2000/svg" xmlns:xlink="http://www.w3.org/1999/xlink" x="0px" y="0px"
	 width="22.814px" height="15.94px" viewBox="0 0 22.814 15.94" enable-background="new 0 0 22.814 15.94" xml:space="preserve">
<path fill="#008652" d="M12.237,0.344C7.762,0.261,4.214,3.79,4.186,8.026c-0.029,4.416,3.481,7.914,7.896,7.916
	c4.335,0.002,7.899-3.495,7.899-7.764C19.98,3.823,16.484,0.423,12.237,0.344z M16.025,10.865c-0.845,1.185-2.174,1.92-3.646,2.022
	l-0.133,0.007l-0.108,0.005c-1.169,0-2.207-0.355-3.085-1.055c-0.301-0.24-0.353-0.645-0.119-0.938
	c0.126-0.16,0.313-0.252,0.518-0.252c0.158,0,0.316,0.056,0.458,0.16c0.54,0.402,1.118,0.639,1.771,0.724
	c0.138,0.019,0.275,0.027,0.413,0.027c1.648,0,3.142-1.239,3.397-2.821c0.084-0.518,0.062-1.009-0.069-1.503
	c-0.063-0.242-0.043-0.459,0.061-0.629c0.089-0.146,0.232-0.247,0.414-0.289C15.948,6.311,16,6.304,16.051,6.304
	c0.313,0,0.573,0.228,0.677,0.596C17.108,8.26,16.853,9.706,16.025,10.865z"/>
<path fill="#008652" d="M22.814,7.868c0,2.35,0.002,4.697-0.002,7.046c0,0.742-0.608,1.216-1.295,1.021
	c-0.463-0.132-0.76-0.552-0.715-1.042c0.11-1.2,0.229-2.4,0.347-3.601c0.063-0.658,0.128-1.316,0.195-1.975
	c0.034-0.31-0.096-0.555-0.266-0.807c-0.129-0.19-0.27-0.422-0.271-0.636c-0.014-1.668-0.021-3.336,0.027-5.004
	c0.017-0.599,0.162-1.2,0.304-1.789c0.064-0.271,0.23-0.533,0.4-0.766c0.214-0.287,0.551-0.36,0.849-0.247
	c0.28,0.107,0.423,0.336,0.423,0.698C22.814,3.135,22.814,5.502,22.814,7.868z"/>
<path fill="#008652" d="M0.726,2.391c0,0.689,0,1.378,0.001,2.066c0,0.144-0.028,0.321,0.191,0.328
	c0.219,0.007,0.208-0.167,0.209-0.312C1.148,3.15,1.168,1.827,1.189,0.502c0.002-0.116-0.001-0.237,0.026-0.351
	c0.013-0.055,0.088-0.135,0.134-0.134c0.052,0.001,0.126,0.072,0.146,0.128C1.521,0.218,1.51,0.305,1.51,0.387
	c0.001,1.333,0,2.667,0.001,4c0,0.082-0.019,0.171,0.012,0.241c0.027,0.063,0.109,0.15,0.162,0.146
	C1.758,4.771,1.852,4.707,1.89,4.642c0.037-0.062,0.019-0.159,0.019-0.24C1.911,3.069,1.91,1.736,1.911,0.403
	c0-0.073-0.021-0.153,0.007-0.215c0.03-0.07,0.104-0.123,0.158-0.182c0.042,0.06,0.118,0.118,0.123,0.182
	C2.22,0.576,2.234,0.965,2.241,1.355c0.017,0.997,0.021,1.994,0.043,2.991c0.004,0.162-0.08,0.428,0.197,0.431
	c0.306,0.004,0.21-0.271,0.209-0.44c-0.009-1.26-0.026-2.519-0.042-3.779C2.646,0.486,2.63,0.408,2.651,0.342
	c0.038-0.115,0.101-0.224,0.15-0.334C2.859,0.115,2.958,0.22,2.969,0.331C3.123,1.873,3.264,3.417,3.407,4.96
	C3.443,5.355,3.334,5.713,3.12,6.045c-0.192,0.301-0.388,0.6-0.578,0.899C2.327,7.278,2.252,7.64,2.276,8.034
	c0.126,1.917,0.245,3.834,0.364,5.751c0.021,0.354,0.046,0.706,0.062,1.06c0.027,0.648-0.408,1.111-1.028,1.095
	c-0.604-0.016-1.002-0.497-0.961-1.132c0.142-2.242,0.271-4.486,0.418-6.729c0.03-0.472-0.075-0.895-0.352-1.285
	C0.599,6.54,0.442,6.273,0.274,6.013C0.065,5.686-0.028,5.331,0.007,4.95c0.146-1.57,0.292-3.141,0.448-4.71
	c0.008-0.082,0.108-0.154,0.169-0.231C0.67,0.096,0.755,0.183,0.757,0.271c0.01,0.707,0.006,1.414,0.006,2.121
	C0.752,2.391,0.74,2.391,0.726,2.391z"/>
</svg>
