<?xml version="1.0" encoding="utf-8"?>
<!-- Generator: Adobe Illustrator 16.0.0, SVG Export Plug-In . SVG Version: 6.00 Build 0)  -->
<!DOCTYPE svg PUBLIC "-//W3C//DTD SVG 1.1//EN" "http://www.w3.org/Graphics/SVG/1.1/DTD/svg11.dtd">
<svg version="1.1" id="Layer_1" xmlns="http://www.w3.org/2000/svg" xmlns:xlink="http://www.w3.org/1999/xlink" x="0px" y="0px"
	 width="19.246px" height="18.088px" viewBox="0 0 19.246 18.088" enable-background="new 0 0 19.246 18.088" xml:space="preserve">
<path fill="#A61E22" d="M19.031,5.978c0.174-0.198,0.285-0.705,0.165-0.875c-0.288-0.412-0.727-0.706-1.135-1.074
	c-0.76,0.805-1.4,1.532-2.095,2.193c-0.267,0.254-0.648,0.461-1.003,0.516c-1.612,0.256-3.052-0.026-4.033-1.576
	c-0.184-0.292-0.488-0.497-0.713-0.763c-0.293-0.346-0.544-0.338-0.846,0C8.961,4.86,8.46,5.246,8.104,5.746
	C7.292,6.892,6.238,7.344,4.913,7.072C4.535,6.996,4.118,6.854,3.837,6.601c-0.692-0.625-1.293-1.36-1.983-1.989
	c-0.191-0.174-0.678-0.278-0.843-0.15C0.619,4.761,0.338,5.218,0,5.626C0.927,6.579,1.731,7.44,2.575,8.261
	c0.372,0.363,0.528,0.735,0.522,1.273c-0.028,2.539,0.02,5.08-0.031,7.621c-0.016,0.836,0.371,0.917,0.998,0.932
	c0.683,0.014,1.123-0.13,1.082-0.979c-0.041-0.811-0.009-1.625-0.009-2.429c0.299-0.047,0.524-0.079,0.79-0.119
	c0,0.857,0.032,1.705-0.009,2.546c-0.041,0.849,0.396,0.994,1.08,0.979c0.625-0.015,1.016-0.092,0.999-0.929
	c-0.05-2.596-0.019-5.19-0.018-7.786c0-0.47,1.286-2.176,1.714-2.271C9.766,7.08,9.852,7.085,9.926,7.107
	c0.646,0.204,1.501,1.638,1.353,2.289c-0.136,0.596-0.322,1.18-0.441,1.778c-0.202,1.007-0.369,2.023-0.56,3.082
	c0.474,0.036,0.8,0.061,1.174,0.09c0,0.766,0,1.471,0,2.177c0,1.447,0,1.431,1.397,1.395c0.563-0.015,0.814-0.26,0.806-0.841
	c-0.011-0.764,0.008-1.528-0.004-2.293c-0.009-0.552,0.232-0.569,0.643-0.363c0,0.838,0.055,1.661-0.017,2.473
	c-0.074,0.864,0.257,1.146,1.032,1.019c0.103-0.017,0.21-0.014,0.315-0.001c0.548,0.068,0.751-0.174,0.729-0.748
	c-0.033-0.943-0.009-1.892-0.009-2.834c0.476-0.021,0.839-0.04,1.224-0.059c0.016-0.143,0.053-0.251,0.032-0.347
	c-0.331-1.565-0.688-3.123-0.988-4.693c-0.053-0.279,0.043-0.69,0.224-0.898C17.541,7.521,18.33,6.791,19.031,5.978z"/>
<path fill="#A61E22" d="M5.502,5.772c1.28,0.014,2.682-1.255,2.605-2.522C8.015,1.717,6.982,0.524,5.569,0.551
	C4.261,0.574,2.931,1.709,3.084,3.164C3.085,4.58,4.175,5.756,5.502,5.772z"/>
<path fill="#A61E22" d="M13.814,5.772c1.281,0.014,2.683-1.255,2.606-2.522c-0.092-1.533-1.125-2.726-2.538-2.699
	c-1.309,0.023-2.638,1.158-2.486,2.613C11.397,4.58,12.487,5.756,13.814,5.772z"/>
<path fill="#A61E22" d="M12.438,1.662c0,0-1.188-1.563-1.345-1.657C10.937-0.09,9.404,1.1,9.373,1.287
	c-0.031,0.188,2.313,1.188,2.313,1.188L12.438,1.662z"/>
<path fill="#A61E22" d="M14.89,1.662c0,0,1.188-1.563,1.345-1.657c0.156-0.095,1.689,1.095,1.721,1.282
	c0.03,0.188-2.314,1.188-2.314,1.188L14.89,1.662z"/>
</svg>
