<?xml version="1.0" encoding="utf-8"?>
<!-- Generator: Adobe Illustrator 16.0.0, SVG Export Plug-In . SVG Version: 6.00 Build 0)  -->
<!DOCTYPE svg PUBLIC "-//W3C//DTD SVG 1.1//EN" "http://www.w3.org/Graphics/SVG/1.1/DTD/svg11.dtd">
<svg version="1.1" id="Layer_1" xmlns="http://www.w3.org/2000/svg" xmlns:xlink="http://www.w3.org/1999/xlink" x="0px" y="0px"
	 width="20.802px" height="20.767px" viewBox="0 0 20.802 20.767" enable-background="new 0 0 20.802 20.767" xml:space="preserve">
<path fill="#A61E22" d="M10.523,0c0.097,0.044,0.202,0.078,0.291,0.135c0.231,0.146,0.367,0.365,0.37,0.641
	c0.005,0.838,0.015,1.676-0.015,2.514c-0.014,0.414-0.354,0.688-0.758,0.691c-0.406,0.004-0.72-0.264-0.781-0.672
	C9.615,3.208,9.607,3.107,9.606,3.006C9.604,2.363,9.62,1.721,9.6,1.078C9.582,0.554,9.747,0.168,10.279,0
	C10.36,0,10.442,0,10.523,0z"/>
<path fill="#A61E22" d="M0,10.279c0.044-0.099,0.078-0.201,0.134-0.291c0.147-0.232,0.367-0.369,0.641-0.371
	c0.851-0.004,1.703-0.01,2.554,0.021c0.383,0.014,0.651,0.373,0.652,0.771c0,0.381-0.271,0.711-0.652,0.756
	c-0.253,0.031-0.512,0.027-0.768,0.029c-0.494,0.004-0.988-0.015-1.481,0.006c-0.525,0.021-0.911-0.146-1.078-0.678
	C0,10.441,0,10.361,0,10.279z"/>
<path fill="#A61E22" d="M20.802,10.523c-0.044,0.098-0.078,0.2-0.134,0.291c-0.146,0.23-0.366,0.368-0.64,0.369
	c-0.852,0.004-1.703,0.012-2.555-0.019c-0.383-0.015-0.65-0.374-0.651-0.773c0-0.381,0.271-0.711,0.651-0.756
	c0.255-0.03,0.513-0.028,0.769-0.03c0.494-0.004,0.988,0.016,1.48-0.005c0.526-0.021,0.911,0.146,1.078,0.679
	C20.802,10.361,20.802,10.441,20.802,10.523z"/>
<path fill="#A61E22" d="M10.38,16.785c-0.562,0-1.123,0.002-1.685-0.002c-0.443-0.002-0.674-0.215-0.663-0.659
	c0.015-0.53-0.16-0.992-0.431-1.433c-0.427-0.69-0.87-1.371-1.263-2.08c-0.462-0.836-0.658-1.75-0.557-2.703
	c0.156-1.479,0.852-2.66,2.11-3.459c1.733-1.104,3.778-0.996,5.398,0.271c0.95,0.741,1.513,1.733,1.696,2.931
	c0.183,1.201-0.104,2.311-0.712,3.342c-0.339,0.576-0.712,1.134-1.069,1.699c-0.276,0.438-0.451,0.899-0.436,1.433
	c0.013,0.442-0.221,0.657-0.662,0.659C11.532,16.787,10.956,16.785,10.38,16.785z"/>
<path fill="#A61E22" d="M10.402,17.605c0.562,0,1.123-0.003,1.684,0c0.482,0.002,0.706,0.228,0.707,0.709
	c0.001,0.332,0.001,0.663,0,0.995c-0.001,0.458-0.225,0.679-0.688,0.681c-0.015,0.002-0.027,0.002-0.041,0
	c-0.229-0.037-0.375,0.055-0.522,0.24c-0.575,0.717-1.71,0.715-2.287-0.003c-0.141-0.176-0.274-0.25-0.502-0.241
	c-0.542,0.018-0.746-0.197-0.746-0.74c0-0.317-0.001-0.637,0-0.954c0.002-0.453,0.231-0.685,0.69-0.687
	C9.266,17.602,9.835,17.605,10.402,17.605z"/>
<path fill="#A61E22" d="M6.092,5.402C6.083,5.619,5.948,5.855,5.675,6c-0.282,0.148-0.559,0.125-0.82-0.059
	C4.811,5.912,4.763,5.88,4.726,5.844C4.17,5.287,3.607,4.742,3.065,4.175c-0.41-0.431-0.276-1.062,0.26-1.286
	C3.652,2.75,3.953,2.838,4.199,3.078c0.56,0.55,1.113,1.107,1.665,1.666C6.015,4.898,6.095,5.09,6.092,5.402z"/>
<path fill="#A61E22" d="M15.384,6.092c-0.199-0.01-0.432-0.141-0.575-0.404c-0.153-0.279-0.145-0.562,0.046-0.818
	c0.124-0.168,0.275-0.312,0.424-0.463c0.438-0.442,0.874-0.887,1.321-1.319c0.444-0.431,1.09-0.31,1.316,0.244
	c0.135,0.327,0.042,0.627-0.198,0.872c-0.545,0.556-1.097,1.104-1.649,1.652C15.909,6.011,15.714,6.097,15.384,6.092z"/>
<path fill="#A61E22" d="M3.594,17.97c-0.307-0.017-0.541-0.147-0.679-0.433c-0.135-0.275-0.117-0.547,0.062-0.801
	c0.042-0.062,0.089-0.119,0.141-0.172c0.525-0.527,1.05-1.056,1.578-1.58c0.341-0.336,0.795-0.373,1.111-0.096
	c0.362,0.314,0.4,0.801,0.052,1.166c-0.552,0.576-1.117,1.141-1.697,1.688c-0.141,0.134-0.357,0.188-0.54,0.274
	C3.612,18.003,3.603,17.986,3.594,17.97z"/>
<path fill="#A61E22" d="M17.969,17.195c-0.008,0.318-0.146,0.557-0.438,0.695c-0.287,0.137-0.562,0.107-0.818-0.08
	c-0.049-0.037-0.098-0.074-0.141-0.117c-0.531-0.528-1.065-1.058-1.592-1.592c-0.443-0.451-0.334-1.104,0.223-1.335
	c0.33-0.139,0.629-0.045,0.875,0.194c0.556,0.544,1.103,1.098,1.651,1.65C17.887,16.771,17.975,16.965,17.969,17.195z"/>
</svg>
