<?xml version="1.0" encoding="utf-8"?>
<!-- Generator: Adobe Illustrator 16.0.0, SVG Export Plug-In . SVG Version: 6.00 Build 0)  -->
<!DOCTYPE svg PUBLIC "-//W3C//DTD SVG 1.1//EN" "http://www.w3.org/Graphics/SVG/1.1/DTD/svg11.dtd">
<svg version="1.1" id="Layer_1" xmlns="http://www.w3.org/2000/svg" xmlns:xlink="http://www.w3.org/1999/xlink" x="0px" y="0px"
	 width="51.014px" height="13.009px" viewBox="0 0 51.014 13.009" enable-background="new 0 0 51.014 13.009" xml:space="preserve">
<path fill="#2AACE3" d="M31.576,6.324c0,0.734-0.049,1.495-0.146,2.28c-0.099,0.784-0.344,1.506-0.735,2.164
	c-0.393,0.658-0.979,1.194-1.764,1.614c-0.783,0.418-1.871,0.627-3.259,0.627c-1.336,0-2.387-0.209-3.152-0.627
	c-0.766-0.419-1.34-0.956-1.723-1.614s-0.619-1.379-0.708-2.164s-0.133-1.545-0.133-2.28c0-0.598,0.058-1.263,0.173-1.997
	c0.116-0.734,0.37-1.421,0.761-2.062c0.392-0.64,0.966-1.178,1.723-1.612C23.37,0.217,24.389,0,25.672,0
	c1.3,0,2.338,0.188,3.112,0.563s1.367,0.867,1.777,1.473c0.409,0.606,0.682,1.285,0.813,2.036
	C31.509,4.822,31.576,5.573,31.576,6.324 M44.16,5.454l1.228,3.944l0.027-0.026c0.019,0,0.036,0.008,0.055,0.026l1.254-4.252
	l1.336-4.43c0.036-0.188,0.089-0.311,0.16-0.372c0.071-0.058,0.187-0.089,0.347-0.089h2.139c0.195,0,0.298,0.047,0.307,0.141
	c0.01,0.094-0.005,0.2-0.041,0.319l-3.927,11.55c-0.088,0.29-0.208,0.454-0.36,0.487c-0.15,0.034-0.289,0.051-0.414,0.051h-1.521
	c-0.375,0-0.615-0.171-0.723-0.512L43.09,9.602L41.968,6.35h-0.053l-1.123,3.278l-0.909,2.586c-0.124,0.394-0.409,0.589-0.854,0.589
	H37.64c-0.32,0-0.529-0.056-0.627-0.167c-0.099-0.11-0.191-0.284-0.279-0.524L32.725,0.741c-0.034-0.12-0.034-0.231,0-0.333
	c0.036-0.103,0.134-0.154,0.294-0.154h2.137c0.179,0,0.309,0.034,0.388,0.103c0.081,0.068,0.147,0.188,0.2,0.357l1.363,4.329
	l1.336,4.43h0.08l1.281-3.867l0.829-2.356l-0.829-2.509c-0.035-0.12-0.029-0.231,0.014-0.333c0.045-0.103,0.139-0.154,0.28-0.154
	h1.978c0.195,0,0.33,0.034,0.402,0.103c0.07,0.068,0.133,0.196,0.187,0.384L44.16,5.454z M27.85,3.212l-2.417,7.329l0.239,0.008
	c0.606,0,1.1-0.081,1.483-0.244c0.383-0.16,0.681-0.408,0.895-0.742c0.213-0.332,0.355-0.754,0.428-1.267
	c0.07-0.513,0.106-1.11,0.106-1.793s-0.036-1.275-0.106-1.779c-0.072-0.504-0.215-0.922-0.428-1.255
	C27.992,3.376,27.923,3.293,27.85,3.212z M23.667,9.832l2.431-7.358c-0.127-0.009-0.259-0.017-0.398-0.017
	c-0.57,0-1.033,0.085-1.389,0.256c-0.357,0.171-0.637,0.427-0.842,0.768c-0.206,0.342-0.347,0.765-0.427,1.269
	c-0.081,0.503-0.12,1.088-0.12,1.753c0,0.684,0.04,1.276,0.12,1.78s0.217,0.921,0.413,1.256C23.519,9.646,23.587,9.742,23.667,9.832
	z M11.461,5.454l1.229,3.944l0.026-0.026c0.018,0,0.036,0.008,0.054,0.026l1.254-4.252l1.336-4.43
	c0.036-0.188,0.089-0.311,0.16-0.372c0.071-0.058,0.188-0.089,0.347-0.089h2.138c0.195,0,0.297,0.047,0.307,0.141
	c0.009,0.094-0.005,0.2-0.041,0.319l-3.927,11.55c-0.089,0.29-0.208,0.454-0.36,0.487c-0.151,0.034-0.289,0.051-0.415,0.051h-1.522
	c-0.374,0-0.614-0.171-0.721-0.512l-0.935-2.689L9.27,6.35H9.216L8.093,9.628l-0.909,2.586c-0.124,0.394-0.408,0.589-0.854,0.589
	H4.941c-0.32,0-0.53-0.056-0.627-0.167c-0.099-0.11-0.191-0.284-0.28-0.524L0.026,0.741c-0.035-0.12-0.035-0.231,0-0.333
	C0.062,0.305,0.16,0.254,0.32,0.254h2.137c0.178,0,0.308,0.034,0.387,0.103c0.081,0.068,0.147,0.188,0.2,0.357l1.363,4.33
	l1.336,4.431h0.079l1.283-3.868l0.829-2.356L7.105,0.742c-0.036-0.12-0.03-0.231,0.014-0.333c0.044-0.103,0.138-0.154,0.28-0.154
	h1.977c0.196,0,0.33,0.034,0.401,0.103C9.848,0.426,9.91,0.554,9.964,0.742L11.461,5.454z"/>
</svg>
