<?xml version="1.0" encoding="utf-8"?>
<!-- Generator: Adobe Illustrator 16.0.0, SVG Export Plug-In . SVG Version: 6.00 Build 0)  -->
<!DOCTYPE svg PUBLIC "-//W3C//DTD SVG 1.1//EN" "http://www.w3.org/Graphics/SVG/1.1/DTD/svg11.dtd">
<svg version="1.1" id="Layer_1" xmlns="http://www.w3.org/2000/svg" xmlns:xlink="http://www.w3.org/1999/xlink" x="0px" y="0px"
	 width="18.507px" height="15.593px" viewBox="0 0 18.507 15.593" enable-background="new 0 0 18.507 15.593" xml:space="preserve">
<path fill="#A61E22" d="M18.507,0h-2.179H8.593H6.414v6.389V8.44C5.326,8.057,3.988,8.102,2.73,8.69
	c-2.209,1.031-3.299,3.301-2.433,5.066c0.864,1.766,3.355,2.362,5.563,1.33c1.729-0.808,2.755-2.372,2.712-3.862h0.019V6.39h7.735
	v2.051c-1.088-0.383-2.427-0.338-3.683,0.25c-2.209,1.031-3.298,3.301-2.434,5.066c0.865,1.766,3.356,2.362,5.565,1.33
	c1.729-0.808,2.755-2.372,2.711-3.861h0.019V6.391V0H18.507z M3.706,10.424c-1.113,0.532-1.534,0.689-2.639,1.847
	c0.062-1.347,1.244-2.396,2.565-2.879c1.626-0.593,2.782,0.407,2.782,0.407S4.82,9.892,3.706,10.424z M13.621,10.424
	c-1.113,0.532-1.534,0.689-2.639,1.847c0.062-1.347,1.244-2.396,2.563-2.879c1.626-0.593,2.784,0.407,2.784,0.407
	S14.733,9.892,13.621,10.424z M17.08,2.794H7.853V1.362h9.226L17.08,2.794L17.08,2.794z"/>
</svg>
