<?xml version="1.0" encoding="utf-8"?>
<!-- Generator: Adobe Illustrator 16.0.0, SVG Export Plug-In . SVG Version: 6.00 Build 0)  -->
<!DOCTYPE svg PUBLIC "-//W3C//DTD SVG 1.1//EN" "http://www.w3.org/Graphics/SVG/1.1/DTD/svg11.dtd">
<svg version="1.1" id="Layer_1" xmlns="http://www.w3.org/2000/svg" xmlns:xlink="http://www.w3.org/1999/xlink" x="0px" y="0px"
	 width="20.133px" height="19.912px" viewBox="0 0 20.133 19.912" enable-background="new 0 0 20.133 19.912" xml:space="preserve">
<path fill="#008652" d="M11.66,4.076c-0.539-0.601-0.688-1.248-0.243-1.913c0.569-0.849,1.417-0.736,2.282-0.539
	c-0.009-0.131-0.019-0.248-0.022-0.365c-0.023-0.476,0.15-0.854,0.568-1.104c0.479-0.288,0.939-0.137,1.347,0.139
	c0.371,0.25,0.499,0.645,0.418,1.092c-0.021,0.108-0.044,0.215-0.071,0.34c0.123,0.035,0.237,0.064,0.351,0.097
	c1.07,0.29,1.807,1.174,1.884,2.267c0.009,0.127,0.007,0.232,0.185,0.277c0.878,0.223,1.161,1.045,0.618,1.77
	c-0.038,0.051-0.076,0.102-0.126,0.168c0.699,0.453,1.147,1.072,1.262,1.902c0.074,0.543-0.044,1.057-0.301,1.538
	c-0.576,1.083-1.605,1.525-2.946,1.257c-0.188,0.526-0.521,0.954-0.979,1.281c-1.223,0.869-2.864,0.477-3.613-0.943
	c-0.097-0.183-0.229-0.213-0.384-0.264c-1.44-0.468-2.337-1.434-2.601-2.917C9,6.529,9.815,4.993,11.306,4.255
	C11.409,4.201,11.515,4.146,11.66,4.076z"/>
<path fill="#008652" d="M1.387,16.28c3.814,0,4.851,0,8.662,0c0-0.357-0.012-0.184,0.003-0.521c0.02-0.502,0.276-0.787,0.691-0.791
	c0.419-0.004,0.688,0.274,0.689,0.783c0.011,1.367,0.004,2.77,0.004,4.161c-0.472,0-0.913,0-1.39,0c0-0.67,0-1.358,0-2.038
	c-3.807,0-4.842,0-8.652,0c0,0.665,0,1.354,0,2.035c-0.479,0-0.918,0-1.395,0c0-0.529,0-1.068,0-1.572c0-1.365,0-2.215,0.001-2.55
	c0.004-0.521,0.266-0.819,0.696-0.819c0.413,0,0.665,0.291,0.686,0.793c0.006,0.164,0.001,0.33,0.002,0.494
	C1.387,16.419,1.387,16.068,1.387,16.28z"/>
<path fill="#008652" d="M4.818,15.689c-1.319,0-0.426-0.019-1.747,0.007c-0.926,0.02-1.015-0.338-0.843-1.081
	c0.075-0.323,0.37-0.392,0.677-0.392c1.1,0.003-0.018,0,1.08,0c1.617,0,2.956,0.003,4.572,0c0.308-0.002,0.665,0.002,0.735,0.342
	c0.07,0.339,0.072,0.535-0.058,0.844c-0.068,0.167-0.478,0.264-0.734,0.27C7.182,15.705,6.139,15.689,4.818,15.689z"/>
<path fill="#008652" d="M4.818,13.544c-1.368,0-0.522,0.002-1.894,0c-0.561-0.003-0.752-0.209-0.754-0.796
	c0-0.383,0.182-0.659,0.735-0.659c2.739-0.002,2.986-0.002,5.726,0c0.587,0,0.743,0.276,0.743,0.678c0,0.59-0.184,0.775-0.764,0.777
	C7.255,13.544,6.176,13.544,4.818,13.544z"/>
<path fill="#008652" d="M13.589,13.65c0.734-0.128,1.438-0.3,2.159,0.119c0.002,0.044,0.018,0.159,0.018,0.276
	c0.001,1.407,0.003,3.016-0.001,4.422c0,0.186-0.022,0.375-0.062,0.558c-0.126,0.578-0.461,0.831-1.064,0.821
	c-0.57-0.008-0.898-0.275-1.021-0.832c-0.015-0.065-0.025-0.133-0.025-0.2C13.589,17.169,13.589,15.32,13.589,13.65z"/>
</svg>
