<?xml version="1.0" encoding="utf-8"?>
<!-- Generator: Adobe Illustrator 16.0.0, SVG Export Plug-In . SVG Version: 6.00 Build 0)  -->
<!DOCTYPE svg PUBLIC "-//W3C//DTD SVG 1.1//EN" "http://www.w3.org/Graphics/SVG/1.1/DTD/svg11.dtd">
<svg version="1.1" id="Layer_1" xmlns="http://www.w3.org/2000/svg" xmlns:xlink="http://www.w3.org/1999/xlink" x="0px" y="0px"
	 width="16.999px" height="16.947px" viewBox="0 0 16.999 16.947" enable-background="new 0 0 16.999 16.947" xml:space="preserve">
<path fill="#A61E22" d="M8.47,1.413l3.817,3.818l0.511-0.902L8.47,0L4.143,4.329l0.511,0.902L8.47,1.413z"/>
<path fill="#A61E22" d="M0,3.459v13.487h16.999V3.459H0z M14.874,14.819H2.125V5.59h12.749V14.819z"/>
<path fill="#A61E22" d="M6.353,13.435L9.882,9.2l3.529,4.235H6.353z"/>
<path fill="#A61E22" d="M3.53,13.435l2.24-2.843l2.238,2.843H3.53z"/>
<path fill="#A61E22" d="M5.647,8.12c0,0.586-0.475,1.061-1.06,1.061c-0.584,0-1.059-0.475-1.059-1.061
	c0-0.584,0.474-1.06,1.059-1.06C5.173,7.063,5.647,7.536,5.647,8.12z"/>
</svg>
