<?xml version="1.0" encoding="utf-8"?>
<!-- Generator: Adobe Illustrator 16.0.0, SVG Export Plug-In . SVG Version: 6.00 Build 0)  -->
<!DOCTYPE svg PUBLIC "-//W3C//DTD SVG 1.1//EN" "http://www.w3.org/Graphics/SVG/1.1/DTD/svg11.dtd">
<svg version="1.1" id="Layer_1" xmlns="http://www.w3.org/2000/svg" xmlns:xlink="http://www.w3.org/1999/xlink" x="0px" y="0px"
	 width="17.852px" height="15.605px" viewBox="0 0 17.852 15.605" enable-background="new 0 0 17.852 15.605" xml:space="preserve">
<path fill="#008652" d="M4.113,2.396c0.11,0,0.198,0,0.286,0c4.182,0,8.363,0,12.543,0c0.714,0,1.043,0.426,0.858,1.114
	c-0.597,2.201-1.192,4.402-1.789,6.604c-0.14,0.514-0.396,0.695-0.979,0.695c-2.793,0.002-5.584,0-8.378,0c-0.094,0-0.188,0-0.329,0
	c0.074,0.283,0.137,0.538,0.211,0.787c0.013,0.041,0.089,0.062,0.14,0.09c0.205,0.113,0.409,0.231,0.618,0.337
	c0.08,0.041,0.174,0.081,0.263,0.081c1.75,0.006,3.501,0.006,5.252-0.001c0.108-0.001,0.229-0.048,0.323-0.104
	c0.657-0.391,1.333-0.429,2-0.062c0.676,0.374,1.013,0.977,1.011,1.75c-0.002,1.037-0.848,1.877-1.911,1.917
	c-0.991,0.039-1.885-0.748-1.983-1.744c-0.005-0.059-0.013-0.114-0.021-0.183c-1.405,0-2.798,0-4.146,0
	c-0.138,0.33-0.225,0.667-0.402,0.943c-0.444,0.683-1.108,0.974-1.907,0.853c-0.816-0.126-1.369-0.617-1.587-1.419
	c-0.218-0.803,0.021-1.489,0.655-2.026c0.118-0.101,0.15-0.178,0.109-0.332c-0.872-3.305-1.738-6.61-2.601-9.917
	C2.304,1.605,2.244,1.536,2.055,1.544C1.648,1.562,1.242,1.551,0.834,1.549C0.343,1.546-0.004,1.219,0,0.767
	C0.004,0.309,0.344,0,0.846,0c0.657,0,1.312,0,1.972,0C3.269,0,3.529,0.199,3.65,0.642C3.807,1.219,3.956,1.797,4.113,2.396z
	 M8.753,5.972c1.052,0,2.083,0,3.125,0c0.147-0.672,0.296-1.334,0.443-2.004c-1.361,0-2.709,0-4.075,0
	C8.42,4.648,8.587,5.312,8.753,5.972z M13.151,5.985c0.784,0,1.521,0.002,2.258-0.009c0.053,0,0.129-0.082,0.147-0.14
	c0.076-0.232,0.131-0.468,0.195-0.704c0.104-0.387,0.209-0.774,0.313-1.17c-0.837,0-1.646,0-2.468,0
	C13.451,4.629,13.306,5.29,13.151,5.985z M6.965,3.969c-0.809,0-1.599,0-2.407,0c0.169,0.624,0.341,1.227,0.496,1.833
	C5.09,5.947,5.147,5.99,5.291,5.989c0.672-0.007,1.343-0.002,2.015-0.005c0.048,0,0.097-0.01,0.163-0.016
	C7.298,5.288,7.13,4.625,6.965,3.969z M5.444,7.23C5.623,7.893,5.79,8.527,5.971,9.156c0.013,0.047,0.123,0.091,0.188,0.093
	C6.47,9.26,6.777,9.254,7.09,9.254c0.389,0,0.776,0,1.183,0C8.263,9.171,8.261,9.113,8.248,9.06
	C8.109,8.508,7.963,7.961,7.835,7.408C7.8,7.258,7.73,7.226,7.593,7.23C7.195,7.237,6.797,7.231,6.397,7.231
	C6.089,7.23,5.781,7.23,5.444,7.23z M12.871,7.24c-0.146,0.664-0.295,1.322-0.446,2.011c0.723,0,1.42,0.002,2.12-0.003
	c0.04-0.002,0.104-0.061,0.114-0.103c0.178-0.63,0.348-1.261,0.522-1.905C14.4,7.24,13.643,7.24,12.871,7.24z M11.593,7.246
	c-0.845,0-1.671,0-2.519,0C9.235,7.893,9.39,8.521,9.557,9.147c0.011,0.045,0.104,0.101,0.161,0.101c0.427,0.009,0.854,0.01,1.283,0
	c0.059-0.002,0.157-0.066,0.169-0.116C11.317,8.508,11.453,7.884,11.593,7.246z"/>
</svg>
