<?xml version="1.0" encoding="utf-8"?>
<!-- Generator: Adobe Illustrator 16.0.0, SVG Export Plug-In . SVG Version: 6.00 Build 0)  -->
<!DOCTYPE svg PUBLIC "-//W3C//DTD SVG 1.1//EN" "http://www.w3.org/Graphics/SVG/1.1/DTD/svg11.dtd">
<svg version="1.1" id="Layer_1" xmlns="http://www.w3.org/2000/svg" xmlns:xlink="http://www.w3.org/1999/xlink" x="0px" y="0px"
	 width="18.021px" height="17.975px" viewBox="0 0 18.021 17.975" enable-background="new 0 0 18.021 17.975" xml:space="preserve">
<path fill="#0668B2" d="M17.805,7.512c0.201-0.205,0.265-0.444,0.179-0.717c-0.082-0.26-0.277-0.389-0.529-0.427
	c-1.654-0.251-3.312-0.505-4.967-0.747c-0.322-0.047-0.533-0.196-0.679-0.507c-0.726-1.558-1.464-3.108-2.193-4.663
	C9.488,0.18,9.311-0.002,9.007,0C8.713,0.002,8.538,0.176,8.414,0.44C7.682,2.002,6.938,3.561,6.211,5.124
	C6.073,5.416,5.874,5.57,5.569,5.615c-1.642,0.244-3.28,0.499-4.923,0.742C0.36,6.399,0.133,6.51,0.036,6.807
	C-0.064,7.115,0.058,7.356,0.27,7.571c1.202,1.218,2.399,2.44,3.602,3.658c0.191,0.193,0.262,0.42,0.217,0.69
	c-0.199,1.199-0.398,2.398-0.596,3.598c-0.098,0.592-0.191,1.184-0.281,1.737c-0.018,0.584,0.489,0.875,0.981,0.605
	c1.467-0.806,2.937-1.609,4.397-2.423c0.288-0.16,0.541-0.167,0.833-0.005c1.469,0.817,2.945,1.621,4.418,2.433
	c0.251,0.138,0.488,0.163,0.725-0.02c0.238-0.184,0.275-0.438,0.229-0.724c-0.281-1.708-0.557-3.417-0.846-5.123
	c-0.057-0.328,0.011-0.578,0.24-0.811C15.399,9.968,16.599,8.737,17.805,7.512z M13.409,8.617c-0.604,0.639-1.204,1.281-1.81,1.918
	c-0.115,0.122-0.148,0.252-0.12,0.423c0.145,0.891,0.282,1.782,0.423,2.673c0.022,0.148,0.004,0.281-0.115,0.377
	c-0.117,0.096-0.237,0.082-0.362,0.011c-0.737-0.424-1.477-0.844-2.211-1.271c-0.146-0.085-0.272-0.081-0.417,0.002
	c-0.731,0.425-1.469,0.844-2.202,1.265c-0.248,0.142-0.502-0.011-0.493-0.315c0.045-0.289,0.093-0.598,0.142-0.907
	c0.1-0.625,0.198-1.251,0.299-1.876c0.021-0.142-0.013-0.259-0.108-0.36c-0.603-0.636-1.2-1.273-1.803-1.908
	C4.524,8.537,4.464,8.411,4.514,8.25C4.562,8.095,4.676,8.037,4.82,8.016c0.821-0.127,1.644-0.261,2.465-0.388
	c0.153-0.022,0.253-0.104,0.321-0.256c0.364-0.815,0.736-1.628,1.104-2.444C8.772,4.79,8.859,4.699,9.007,4.699
	c0.152-0.001,0.241,0.094,0.305,0.235c0.366,0.811,0.735,1.619,1.1,2.433c0.072,0.162,0.179,0.24,0.34,0.265
	c0.828,0.127,1.657,0.26,2.485,0.391c0.126,0.02,0.226,0.087,0.267,0.223C13.541,8.385,13.511,8.509,13.409,8.617z"/>
</svg>
