<?xml version="1.0" encoding="utf-8"?>
<!-- Generator: Adobe Illustrator 16.0.0, SVG Export Plug-In . SVG Version: 6.00 Build 0)  -->
<!DOCTYPE svg PUBLIC "-//W3C//DTD SVG 1.1//EN" "http://www.w3.org/Graphics/SVG/1.1/DTD/svg11.dtd">
<svg version="1.1" id="Layer_1" xmlns="http://www.w3.org/2000/svg" xmlns:xlink="http://www.w3.org/1999/xlink" x="0px" y="0px"
	 width="20.702px" height="15.103px" viewBox="0 0 20.702 15.103" enable-background="new 0 0 20.702 15.103" xml:space="preserve">
<path fill="#A61E22" d="M9.701,2.969c3.508,0,6.947,0,10.408,0c1.267,4.051,0.713,9.424-3.726,11.713
	c-1.051,0.543-1.908,0.585-2.915-0.017c-3.54-2.116-4.992-5.791-4.07-10.453C9.483,3.79,9.602,3.373,9.701,2.969z M12.716,10.457
	c0.035,0.755,0.872,1.717,2.2,1.717c1.236,0,2.323-0.854,2.338-1.717C15.589,10.457,14.48,10.457,12.716,10.457z M10.895,6.266
	c0.033,0.168,0.065,0.336,0.099,0.504c0.855,0.177,1.712,0.353,2.569,0.527c0.1-0.131,0.198-0.261,0.296-0.39
	c-0.437-0.471-0.802-1.184-1.336-1.329C12.084,5.456,11.446,6.011,10.895,6.266z M18.653,6.777c0.032-0.213,0.066-0.424,0.1-0.635
	c-0.521-0.214-1.111-0.686-1.54-0.573c-0.498,0.129-0.855,0.767-1.273,1.184c0.104,0.167,0.205,0.333,0.308,0.5
	C17.048,7.094,17.85,6.937,18.653,6.777z"/>
<path fill="#A61E22" d="M9.343,0c0.323,0.426,0.742,0.979,1.258,1.66c-0.628,0-1.058,0-1.152,0C8.73,2.514,8.173,3.195,7.595,3.86
	C6.988,4.557,7.206,5.117,8.246,5.503c0.124,1.42,0.2,2.747-1.347,3.698c-0.488,0.301-0.507,1.305-0.741,1.986
	c0.131,0.068,0.261,0.139,0.391,0.205c0.642-0.271,1.283-0.543,2.036-0.861c0.37,0.895,0.713,1.725,1.062,2.568
	C5.292,14.17,1.265,9.828,0,4.893C3.075,3.282,6.13,1.683,9.343,0z M5.612,6.426C5.6,6.262,5.59,6.098,5.578,5.936
	c-0.702,0-1.496-0.187-2.07,0.071C3.184,6.153,3.219,7.034,3.092,7.585c0.14,0.057,0.281,0.113,0.42,0.167
	C4.212,7.31,4.912,6.868,5.612,6.426z"/>
</svg>
