<?xml version="1.0" encoding="utf-8"?>
<!-- Generator: Adobe Illustrator 16.0.0, SVG Export Plug-In . SVG Version: 6.00 Build 0)  -->
<!DOCTYPE svg PUBLIC "-//W3C//DTD SVG 1.1//EN" "http://www.w3.org/Graphics/SVG/1.1/DTD/svg11.dtd">
<svg version="1.1" id="Layer_1" xmlns="http://www.w3.org/2000/svg" xmlns:xlink="http://www.w3.org/1999/xlink" x="0px" y="0px"
	 width="22.909px" height="14.22px" viewBox="0 0 22.909 14.22" enable-background="new 0 0 22.909 14.22" xml:space="preserve">
<path fill="#008652" d="M2.872,7.122c0.796,0,1.44-0.639,1.44-1.427h1.43c0,1.57-1.285,2.842-2.87,2.842
	C1.285,8.537,0,7.266,0,5.695h1.432C1.431,6.483,2.075,7.122,2.872,7.122z"/>
<path fill="#008652" d="M7.157,7.122c0.796,0,1.441-0.639,1.441-1.427h1.431c0,1.57-1.286,2.842-2.872,2.842
	S4.285,7.266,4.285,5.695h1.433C5.717,6.483,6.361,7.122,7.157,7.122z"/>
<path fill="#008652" d="M11.455,7.122c0.796,0,1.44-0.639,1.44-1.427h1.431c0,1.57-1.285,2.842-2.871,2.842
	c-1.587,0-2.872-1.271-2.872-2.842h1.431C10.014,6.483,10.658,7.122,11.455,7.122z"/>
<path fill="#008652" d="M15.741,7.122c0.797,0,1.441-0.639,1.441-1.427h1.43c0,1.57-1.284,2.842-2.871,2.842
	c-1.586,0-2.872-1.271-2.872-2.842h1.433C14.301,6.483,14.945,7.122,15.741,7.122z"/>
<path fill="#008652" d="M20.039,7.122c0.796,0,1.44-0.639,1.44-1.427h1.43c0,1.57-1.285,2.842-2.87,2.842
	c-1.586,0-2.872-1.271-2.872-2.842h1.432C18.598,6.483,19.242,7.122,20.039,7.122z"/>
<path fill="#008652" d="M5.139,1.426c0.796,0,1.439-0.638,1.439-1.426H8.01c0,1.569-1.285,2.841-2.871,2.841S2.267,1.569,2.267,0
	h1.43C3.696,0.787,4.342,1.426,5.139,1.426z"/>
<path fill="#008652" d="M9.436,1.426c0.796,0,1.44-0.638,1.44-1.426h1.431c0,1.569-1.286,2.841-2.871,2.841
	C7.85,2.841,6.563,1.569,6.563,0h1.43C7.994,0.787,8.64,1.426,9.436,1.426z"/>
<path fill="#008652" d="M13.723,1.426c0.795,0,1.439-0.638,1.439-1.426h1.432c0,1.569-1.286,2.841-2.871,2.841
	c-1.586,0-2.872-1.271-2.872-2.841h1.431C12.28,0.787,12.926,1.426,13.723,1.426z"/>
<path fill="#008652" d="M18.019,1.426c0.796,0,1.44-0.638,1.44-1.426h1.432c0,1.569-1.286,2.841-2.872,2.841S15.146,1.569,15.146,0
	h1.431C16.578,0.787,17.223,1.426,18.019,1.426z"/>
<path fill="#008652" d="M5.139,12.805c0.796,0,1.439-0.639,1.439-1.427H8.01c0,1.57-1.285,2.842-2.871,2.842
	s-2.872-1.271-2.872-2.842h1.43C3.696,12.166,4.342,12.805,5.139,12.805z"/>
<path fill="#008652" d="M9.436,12.805c0.796,0,1.44-0.639,1.44-1.427h1.431c0,1.57-1.286,2.842-2.871,2.842
	c-1.586,0-2.872-1.271-2.872-2.842h1.43C7.994,12.166,8.64,12.805,9.436,12.805z"/>
<path fill="#008652" d="M13.723,12.805c0.795,0,1.439-0.639,1.439-1.427h1.432c0,1.57-1.286,2.842-2.871,2.842
	c-1.586,0-2.872-1.271-2.872-2.842h1.431C12.28,12.166,12.926,12.805,13.723,12.805z"/>
<path fill="#008652" d="M18.019,12.805c0.796,0,1.44-0.639,1.44-1.427h1.432c0,1.57-1.286,2.842-2.872,2.842
	s-2.872-1.271-2.872-2.842h1.431C16.578,12.166,17.223,12.805,18.019,12.805z"/>
</svg>
