<?xml version="1.0" encoding="utf-8"?>
<!-- Generator: Adobe Illustrator 16.0.0, SVG Export Plug-In . SVG Version: 6.00 Build 0)  -->
<!DOCTYPE svg PUBLIC "-//W3C//DTD SVG 1.1//EN" "http://www.w3.org/Graphics/SVG/1.1/DTD/svg11.dtd">
<svg version="1.1" id="Layer_1" xmlns="http://www.w3.org/2000/svg" xmlns:xlink="http://www.w3.org/1999/xlink" x="0px" y="0px"
	 width="13.215px" height="18.454px" viewBox="0 0 13.215 18.454" enable-background="new 0 0 13.215 18.454" xml:space="preserve">
<path fill="#008652" d="M12.911,5.052c-0.857,0.015-1.708,0.07-2.535,0.316c-1.499,0.448-2.349,1.49-2.353,2.989
	c-0.007,2.422,0.002-0.09,0.01,2.334H5.182c0.009-2.424,0.018,0.088,0.011-2.334C5.188,6.858,4.338,5.816,2.838,5.368
	C2.012,5.121,1.161,5.064,0.304,5.052C0.205,5.051,0.108,5.057,0,5.061c0.003,0.466,0.005,0.908,0.008,1.354
	C0.12,6.417,0.205,6.421,0.291,6.423c0.733,0.021,1.46,0.073,2.167,0.285c0.763,0.228,1.213,0.696,1.283,1.471
	c0.012,0.134,0.02,0.267,0.02,0.398c-0.006,2.351-0.012-0.236-0.017,2.114H0.803v4.996h2.931c-0.002,0.771-0.003-0.49-0.006,0.282
	c-0.002,0.821-0.004,1.644-0.006,2.484c0.479-0.002,0.943-0.003,1.43-0.005c0.002-0.096,0.005-0.175,0.005-0.255
	c0.005-1.516,0.009-0.995,0.013-2.508h2.878c0.005,1.513,0.009,0.992,0.015,2.508c0,0.08,0.003,0.159,0.006,0.255
	c0.482,0.003,0.948,0.003,1.428,0.005C9.494,17.612,9.492,16.79,9.49,15.97c-0.002-0.771-0.003,0.488-0.005-0.282h2.823v-4.996
	H9.473C9.467,8.34,9.46,10.927,9.456,8.577c0-0.133,0.007-0.266,0.02-0.398c0.068-0.773,0.521-1.243,1.282-1.471
	c0.707-0.212,1.436-0.266,2.166-0.285c0.087-0.002,0.172-0.006,0.283-0.009c0.003-0.446,0.005-0.889,0.008-1.354
	C13.107,5.057,13.009,5.05,12.911,5.052z"/>
<path fill="#008652" d="M6.625,5.743c1.604-0.014,2.878-1.312,2.859-2.915C9.463,1.264,8.156-0.016,6.589,0
	c-1.604,0.014-2.88,1.317-2.856,2.92C3.754,4.492,5.048,5.756,6.625,5.743z"/>
<path fill="#008652" d="M7.33,4.02H5.91v14.435h1.42V4.02z"/>
</svg>
