<?xml version="1.0" standalone="no"?>
<!DOCTYPE svg PUBLIC "-//W3C//DTD SVG 1.1//EN" "http://www.w3.org/Graphics/SVG/1.1/DTD/svg11.dtd">
<svg xmlns="http://www.w3.org/2000/svg">
<metadata>Copyright (C) 2014 by original authors @ fontello.com</metadata>
<defs>
<font id="fontello" horiz-adv-x="1000" >
<font-face font-family="fontello" font-weight="400" font-stretch="normal" units-per-em="1000" ascent="850" descent="-150" />
<missing-glyph horiz-adv-x="1000" />
<glyph glyph-name="facebook" unicode="&#xe800;" d="m53 345v165h142v122q0 104 58 161t155 57q82 0 127-7v-147h-87q-48 0-65-20t-17-60v-106h164l-22-165h-142v-424h-171v424h-142z" horiz-adv-x="571.4" />
<glyph glyph-name="odnoklassniki" unicode="&#xe801;" d="m290 850c-143 0-258-116-258-258 0-142 115-258 258-258 142 0 258 116 258 258 0 142-116 258-258 258z m0-151c59 0 107-48 107-107 0-59-48-107-107-107-59 0-107 48-107 107 0 59 48 107 107 107z m-213-374c-26 0-51-12-65-35-23-36-12-82 23-105 47-29 98-50 150-62l-144-144c-30-30-30-77 0-107 15-15 34-22 53-22 20 0 39 7 54 22l142 142 141-142c30-29 78-29 107 0 30 30 30 78 0 107l-144 144c53 12 103 33 150 62 35 23 46 69 24 105-23 35-69 46-105 23-105-66-241-66-347 0-12 8-26 12-39 12z" horiz-adv-x="579" />
<glyph glyph-name="twitter" unicode="&#xe802;" d="m25 74q19-2 43-2 126 0 224 77-59 1-105 36t-64 89q19-3 34-3 24 0 48 6-63 13-104 62t-41 115v2q38-21 82-23-37 25-59 64t-22 86q0 49 25 91 67-83 164-133t208-55q-5 21-5 41 0 75 53 127t127 53q78 0 132-57 61 12 114 44-20-64-79-100 52 6 104 28-37-54-90-93 0-8 0-23 0-73-21-145t-64-139-103-117-144-82-181-30q-151 0-276 81z" horiz-adv-x="928.6" />
<glyph glyph-name="vkontakte" unicode="&#xe803;" d="m-1 553q0 6 2 9l2 3q9 11 32 11l153 1q7-1 13-4t9-4l3-2q9-6 13-18 11-28 26-58t23-45l9-16q16-34 31-58t27-38 23-22 19-8 15 3q1 1 3 3t7 12 7 26 5 46 0 69q-1 23-5 41t-7 26l-4 6q-14 19-47 24-8 1 3 14 9 10 21 17 29 14 133 13 46-1 75-7 12-3 19-8t12-13 5-18 2-26 0-30-2-40 0-46q0-6-1-23t0-27 2-22 6-22 13-14q4-1 9-2t15 6 21 19 29 38 38 60q33 58 60 125 2 6 5 10t6 6l2 2 3 1t8 2 11 0l160 1q22 3 36-1t17-10l4-5q13-36-84-164-13-18-36-48-44-56-50-73-10-23 7-45 10-12 46-46h0l1 0 0-1 1-1q79-73 107-123 2-3 4-7t3-15 0-19-14-15-33-7l-143-3q-13-2-31 3t-29 12l-11 7q-17 12-39 36t-38 43-34 32-32 9q-1 0-4-2t-10-8-12-16-9-29-4-44q0-8-2-15t-4-10l-2-3q-10-11-30-12h-64q-40-3-81 9t-74 29-57 37-40 32l-14 14q-5 5-15 16t-40 51-59 84-68 118-73 152q-4 9-4 15z" horiz-adv-x="1071.4" />
<glyph glyph-name="search" unicode="&#xe804;" d="m772 78q30-34 6-62l-46-46q-36-32-68 0l-190 190q-74-42-156-42-128 0-223 95t-95 223 90 219 218 91 224-95 96-223q0-88-46-162z m-678 358q0-88 68-156t156-68 151 63 63 153q0 88-68 155t-156 67-151-63-63-151z" horiz-adv-x="789" />
<glyph glyph-name="shop" unicode="&#xe805;" d="m264 697c7 0 12 0 18 0 268 0 536 0 804 0 45 0 67-28 55-72-39-141-77-282-115-423-9-33-25-45-63-45-179 0-358 0-537 0-6 0-12 0-21 0 5-18 9-34 14-50 1-3 6-4 9-6 13-7 26-15 39-21 6-3 12-6 17-6 112 0 225 0 337 0 7 1 15 4 21 7 42 25 85 28 128 4 43-24 65-63 65-112-1-67-55-120-123-123-63-2-121 48-127 112 0 4-1 7-1 12-90 0-180 0-266 0-9-22-14-43-26-61-28-44-71-62-122-55-52 8-88 40-102 91-14 52 2 96 42 130 8 7 10 12 7 22-56 211-111 423-166 635-3 11-7 16-19 15-26-1-52 0-79 0-31 0-53 21-53 50 0 29 22 49 54 49 42 0 84 0 127 0 29 0 45-13 53-41 10-37 20-74 30-112z m297-230c67 0 133 0 200 0 10 43 19 86 29 129-88 0-174 0-262 0 12-44 22-86 33-129z m282 0c50 0 97-1 144 0 4 0 9 5 10 9 5 15 8 30 12 45 7 25 14 50 20 75-53 0-105 0-158 0-9-43-18-85-28-129z m-397 129c-51 0-102 0-154 0 11-40 22-79 32-118 2-9 6-12 15-12 43 1 86 0 129 1 3 0 6 0 11 1-11 43-22 86-33 128z m-97-209c11-43 22-83 34-124 1-3 8-6 12-6 20 0 39 0 59 0 25 0 50 0 76 0 0 5-1 9-1 12-9 36-19 71-27 106-2 10-7 12-15 12-26-1-51 0-77 0-20 0-39 0-61 0z m476-1c-10-42-19-85-29-129 47 0 91 0 136 0 3 1 7 4 7 7 12 40 23 81 34 122-50 0-99 0-148 0z m-82 0c-54 0-107 0-161 0 10-42 20-82 30-122 1-3 7-7 11-7 27 0 55 0 82 0 4 1 10 5 11 8 9 40 18 80 27 121z" horiz-adv-x="1144" />
<glyph glyph-name="bear" unicode="&#xe807;" d="m10 59c41 107 52 210 42 323-23 260 192 393 368 408 102 9 204-1 307 1 29 1 62 11 87 26 78 47 117 46 183-16 66-62 195-88 278-55 10 21 27 29 45 23 33-11 19-39 8-61 18-18 35-39 42-53 16-34-15-105-1-140 12-31 52-26 58-59 5-21-4-29-11-44-28-60-74-17-115-15 5-11 9-21 14-36-71-21-149-33-206 9-85 64-49 159-28 245-60-74-48-154-18-238-57-8-86-40-95-92-1-10-13-19-22-25-90-53-115-139-122-235-6-87-6-87 76-106 8-1 17-1 22-6 11-10 19-23 29-34-12-9-22-24-35-25-37-4-74-4-111-4-103 2-150 36-181 135-21 68-37 137-57 210-39-15-76-33-115-43-41-12-85-15-127-24-11-2-22-7-29-15-39-40-76-82-115-122-23-24-29-40 7-57 19-8 33-26 49-40-23-13-44-34-67-37-111-11-201 97-160 202z m1098 282c28 2 58-14 86-12 43 2 71-13 93-47 20-32 49-58 63-92 26-69 48-140 65-212 8-35-6-75-47-72-23 1-49 30-63 53-14 22-15 52-20 71-59 25-115 38-158 70-41 31-62 88-103 120-40 32-31 70-12 90 21 21 63 27 96 31z m-568-366c17-5 38-8 58-16 27-10 40-29 16-53-28-28-212-11-238 20-4 6-8 14-10 21-12 49-23 99-34 147 73 18 144 35 224 55-5-59-10-114-16-174z" horiz-adv-x="1428" />
<glyph glyph-name="star" unicode="&#xe808;" d="m991 432c11 12 14 25 10 40-5 14-16 22-30 24-92 14-184 28-276 41-18 3-30 11-38 29-40 86-81 172-122 259-7 15-17 25-34 25-16 0-26-10-33-24-41-87-82-174-122-261-8-16-19-25-36-27-91-14-183-28-274-42-16-2-29-8-34-25-6-17 1-30 13-42 67-68 134-136 200-204 11-10 15-23 13-38-12-67-23-133-34-200-5-33-10-66-15-97-1-32 27-49 54-34 82 45 164 90 245 135 16 9 30 10 46 0 82-45 164-90 246-135 14-8 27-9 40 1 14 10 16 25 13 41-15 95-31 190-47 285-3 18 1 32 13 45 68 68 134 136 202 204z m-245-61c-34-36-67-72-101-107-6-7-8-14-6-24 8-49 15-99 23-148 1-9 0-16-6-21-7-6-13-5-20-1-41 24-83 47-123 71-8 5-15 4-24 0-40-24-81-47-122-71-14-8-28 1-27 18 2 16 5 33 7 50 6 35 11 70 17 105 1 8-1 14-6 20-33 35-67 71-100 106-6 6-10 13-7 22 3 9 9 12 17 13 46 7 92 15 137 22 9 1 14 5 18 14 20 45 41 90 62 136 3 8 8 13 16 13 9 0 14-6 17-13 20-46 41-91 61-136 4-9 10-13 19-15 46-7 92-14 138-21 7-1 13-5 15-13 2-7 1-14-5-20z" horiz-adv-x="1003" />
<glyph glyph-name="theatre" unicode="&#xe809;" d="m642 653c233 0 460 0 690 0 83-268 47-624-247-775-70-36-127-39-193 1-235 140-331 383-270 692 6 28 14 56 20 82z m200-495c2-50 58-114 146-114 82 0 153 57 154 114-110 0-183 0-300 0z m-121 277c3-11 5-22 7-33 57-12 113-24 170-35 7 9 13 17 20 26-29 31-53 78-89 88-29 8-71-29-108-46z m514-34c2 14 4 28 7 42-35 15-74 46-102 38-33-8-57-50-85-78 7-11 14-22 21-33 53 10 106 21 159 31z m-616 449c21-28 49-65 83-110-42 0-70 0-76 0-48-56-85-101-123-146-40-46-26-83 43-108 8-94 13-182-89-245-32-20-34-87-49-132 8-4 17-9 26-13 42 18 85 36 134 57 25-59 48-114 71-170-289-71-555 216-639 543 204 107 406 213 619 324z m-247-425c-1 10-2 21-3 32-46 0-99 12-137-5-21-9-19-68-27-104 9-4 18-8 28-11 46 29 92 58 139 88z" horiz-adv-x="1371" />
<glyph glyph-name="bicycle" unicode="&#xe80a;" d="m517 645c122 0 241 0 362 0 0 23 0 45 0 69 95 0 189 0 283 0 0-31 0-62 0-94-22 0-44 0-69 0 3-6 4-9 6-13 31-53 63-107 94-161 5-10 10-11 21-8 177 56 363-53 397-233 32-173-98-339-276-353-158-12-293 87-327 239-2 9-7 12-16 13-20 2-33-5-45-20-8-11-24-16-15-35 16 0 34 0 52 0 0-32 0-63 0-95-50 0-100 0-151 0-1 4-2 8-2 12 0 20-1 40 0 60 2 25 0 46-23 64-19 14-23 38-26 61 0 6-3 14-8 17-68 50-138 100-210 151 3-6 4-9 5-11 108-180 11-403-196-450-174-40-348 80-370 255-21 157 82 300 240 333 30 6 63 5 95 5 11 0 15 2 19 13 39 123 79 245 118 368 4 14 10 18 25 18 63-1 125-1 188 0 11 0 16-3 16-15-1-22-1-44 0-67 0-11-3-15-16-15-40 1-80 0-121 0-11 1-16-2-19-13-9-31-20-63-31-95z m-103-318c-13-41-27-81-39-122-3-9-2-21 1-30 11-36-6-74-40-88-35-15-75-2-93 31-18 32-8 72 23 94 7 4 12 12 15 19 12 35 23 71 35 107 2 6 3 12 4 18-83 11-194-47-219-163-22-101 42-208 145-238 107-31 219 23 258 126 40 106-18 210-90 246z m565 220c-9 0-15 0-22 0-147 0-295 0-442 0-29 0-28 0-39-28-4-11-1-17 9-24 115-82 229-164 344-247 17-12 33-8 40 12 11 29 23 59 34 88 25 66 50 131 76 199z m126-443c23-112 145-181 261-150 114 30 180 153 141 264-40 115-164 161-257 130 24-40 47-80 71-120 2-4 8-7 13-9 29-12 44-33 47-64 2-16 3-33 4-50-7-1-20-1-29-7-32-23-63-24-96 0-3 3-8 5-11 5-48 1-95 1-144 1z m11 283c-19 32-37 63-57 96-3-8-5-12-6-16-29-76-57-153-88-229-16-39-4-39 28-38 10 0 13 5 15 12 5 18 9 35 15 52 19 49 51 88 93 123z m-11-186c39 0 77 0 118 0-20 35-39 67-58 101-30-29-51-61-60-101z" horiz-adv-x="1616" />
<glyph glyph-name="camera" unicode="&#xe80b;" d="m938 514c-104 0-189-87-189-194 0-107 84-195 185-196 101-2 192 82 192 195 0 108-84 195-188 195z m453 93c0 58-43 108-101 117-30 4-60 4-91 2-20-1-31 5-38 24-6 15-15 29-24 42-24 36-58 56-101 57-72 1-145 1-217 0-44-1-78-21-102-58-10-17-20-34-29-52-5-10-11-12-21-12-92 0-184 0-275 0-5 0-10 0-17 0 0 24 0 47 0 70-73 0-144 0-217 0 0-24 0-46 0-70-10 0-17 0-24 0-83 0-134-51-134-133 0-198 0-415 0-613 0-80 52-131 133-131 246 0 493 0 740 0 130 0 261 0 392 0 69 0 125 52 126 119 0 207 0 432 0 638z m-1066-546c0-29-23-49-55-48-27 1-49 18-49 43-1 156-1 311 0 466 0 27 24 45 54 44 29-1 50-20 50-47 0-77 0-154 0-230 0-76 0-152 0-228z m607-48c-159 3-290 139-290 307 0 168 133 305 296 305 163 0 295-137 295-306-1-177-142-309-301-306z" horiz-adv-x="1391" />
<glyph glyph-name="waves" unicode="&#xe80c;" d="m202 349c56 0 101 45 101 101h101c0-111-91-200-202-200-112 0-202 89-202 200h101c0-56 45-101 101-101z m301 0c56 0 102 45 102 101h100c0-111-90-200-202-200s-202 89-202 200h101c0-56 45-101 101-101z m303 0c56 0 101 45 101 101h101c0-111-91-200-202-200-112 0-202 89-202 200h100c0-56 46-101 102-101z m301 0c56 0 101 45 101 101h101c0-111-90-200-202-200-112 0-202 89-202 200h101c0-56 45-101 101-101z m302 0c56 0 102 45 102 101h100c0-111-90-200-202-200-111 0-202 89-202 200h101c0-56 45-101 101-101z m-1048 401c56 0 102 45 102 100h100c0-110-90-200-202-200s-202 90-202 200h101c0-55 45-100 101-100z m303 0c56 0 101 45 101 100h101c0-110-91-200-202-200-112 0-202 90-202 200h100c0-55 46-100 102-100z m301 0c56 0 101 45 101 100h101c0-110-90-200-202-200-111 0-202 90-202 200h101c0-55 45-100 101-100z m302 0c56 0 101 45 101 100h101c0-110-90-200-202-200s-202 90-202 200h101c0-55 45-100 101-100z m-906-801c56 0 102 45 102 101h100c0-111-90-200-202-200s-202 89-202 200h101c0-56 45-101 101-101z m303 0c56 0 101 45 101 101h101c0-111-91-200-202-200-112 0-202 89-202 200h100c0-56 46-101 102-101z m301 0c56 0 101 45 101 101h101c0-111-90-200-202-200-111 0-202 89-202 200h101c0-56 45-101 101-101z m302 0c56 0 101 45 101 101h101c0-111-90-200-202-200s-202 89-202 200h101c0-56 45-101 101-101z" horiz-adv-x="1611" />
<glyph glyph-name="wtf" unicode="&#xe80d;" d="m700 576c-47-1-93-4-138-17-81-24-127-81-127-162-1-131 0 5 0-126h-154c0 131 1-5 0 126 0 81-46 138-127 162-45 14-91 17-137 17-6 0-11 0-17 0 0-25 0-49 0-74 7 0 11 0 16 0 40-1 79-4 117-15 42-13 66-38 70-80 0-7 1-15 1-22 0-127-1 13-1-114h-159v-271h158c0-42 0 27 0-15 0-45 0-89 0-135 26 0 51 0 77 0 0 5 1 10 1 14 0 82 0 54 0 136h156c0-82 1-54 1-136 0-4 0-9 0-14 26 0 52 0 78 0 0 46-1 90-1 135 0 41 0-27 0 15h153v271h-154c0 127 0-13-1 114 0 7 1 15 2 22 3 42 28 67 69 80 38 11 78 14 117 15 5 0 10 0 16 0 0 25 0 49 0 74-6 0-11 0-16 0z m-341-37c87 1 156 71 155 158-1 85-72 154-157 153-87-1-156-71-155-158 1-85 72-154 157-153z m38 93h-77v-782h77v782z" horiz-adv-x="716" />
<glyph glyph-name="check" unicode="&#xe80e;" d="m840 714c-118-118-237-237-355-355-52 53-104 105-156 156-45-45-89-89-132-132 95-95 192-192 290-290 154 154 310 310 465 466 93-185 58-465-170-622-216-148-516-105-681 112-162 212-126 517 82 687 206 169 491 140 657-22z" horiz-adv-x="1000" />
<glyph glyph-name="cinema" unicode="&#xe80f;" d="m32 467v-242h0l0-278c0-54 44-97 97-97h629c54 0 97 43 97 97v94 32 152 242h-823z m618-67h128l-52-102h-127l51 102z m-255 0h127l-51-102h-128l52 102z m-256 0h128l-52-102h-127l51 102z m647-327v-32-94c0-16-12-28-28-28h-629c-15 0-28 12-28 28l1 278h684l0-152 0 0z m36 619l-8 31-14 54c-13 52-66 83-117 70l-610-155c-52-13-83-66-70-118l22-85c1-4 4-13 5-16l1-6 797 203-6 22z m-701-148l-75 87 123 31 75-87-123-31z m248 63l-75 87 123 31 75-87-123-31z m247 63l-75 87 123 31 76-87-124-31z" horiz-adv-x="855" />
<glyph glyph-name="cup" unicode="&#xe810;" d="m946 751h-129v99h-312c-89 0-178 0-267 0h-43v-36c0-2 0-4 0-7 0-8 0-17 0-26v-29h-141c-30 0-54-29-54-65v-163c0-97 123-174 220-174h57c0-1 1-1 1-1 49-66 105-123 168-175 4-3 8-6 11-10v-150l-274-42v-56h640v56l-275 42v138c4 8 9 16 17 24 47 43 95 87 137 135 11 12 22 25 31 39h52c96 0 215 77 215 174v163c0 36-24 64-54 64z m-726-310c-46 0-129 37-129 83v136h108c0-26 1-53 3-80 2-48 11-95 27-139l-9 0 0 0z m689 83c0-46-79-83-124-83h-2c7 20 14 42 17 64 8 52 12 104 15 156h94l0-137 0 0z m-86-618c0-31-26-56-57-56h-527c-31 0-56 25-56 56l0 0c0 31 25 56 56 56h527c31 0 57-25 57-56l0 0z m0 66c0-31-26-57-57-57h-527c-31 0-56 26-56 57l0 0c0 31 25 56 56 56h527c31 0 57-25 57-56l0 0z" horiz-adv-x="1000" />
<glyph glyph-name="disco" unicode="&#xe811;" d="m499 675c0 3 1 6 1 8 0 34-20 63-49 76v91h-71v-92c-27-13-47-42-47-75 0-2 1-5 1-8-190-38-334-206-334-408 0-230 187-417 417-417 230 0 416 187 416 417 0 202-143 370-334 408z m-378-364c0-29 0-56 0-83l-15 0c-13 0-26 0-39 2-13 2-17 13-18 22l-1 10c-1 7-1 13-2 19 0 23 4 29 25 33 14 3 29 5 44 7l6 1v-11z m2 177c-5-2-13 1-20 1 0 2-1 4-1 6 32 30 64 60 97 91 4-27-9-60-31-76-14-9-29-16-45-22z m166-457c-22 5-43 8-63 13-14 4-23 14-27 28-7 24-12 48-18 73l-3 16 111-11 12-121-12 2z m12 467c-4-37-7-70-9-102-31-4-63-7-95-11l-11-1c-3 28-3 52 7 74 9 20 25 28 37 31 20 6 40 11 61 16 4 0 7 1 11 2l-1-9z m-16 52c-7-2-15-4-23-6-12-2-25-4-38-6 10 44 49 79 96 84 1-8 2-17 1-25-1-26-10-38-36-47z m85 75c2 4 6 10 19 11 16 1 31 1 46 0 15 0 19-8 20-15 3-16 5-32 7-48l1-7h-101c0 21 1 41 8 59z m95-659c-2-13-4-25-5-38-2-19-8-25-26-28-12-2-24-3-35-3l-1-14v14c-16 0-20 3-24 17-4 15-7 30-10 46l-1 6h102l0 0z m18 235h-142v142h142v-142z m-141 197l6 75c1 7 2 14 4 21 2 11 10 19 20 19 28 1 56 1 84 0 9 0 18-8 19-16 3-28 7-56 10-84l1-15-144 0 0 0z m432-33l-5 1c-17 2-33 4-48 8-3 0-9 5-10 7-5 23-9 45-13 68l-1 6c41-12 72-48 77-90z m-132 90c5-19 8-39 11-60l2-10-66 5c-17 1-34 3-52 6-4 32-8 65-12 99l-1 9 14-2c24-4 47-8 70-12 18-4 30-16 34-35z m22-123c0-19 0-38 0-57 0-21 0-41-2-63-36-4-73-7-110-11l-12-1v144l72-7c17-1 33-3 52-5z m-56 213c-42-3-69 3-83 18-11 12-17 32-17 62 46-4 91-40 100-80z m-101-635c0 1 0 2 0 3 1 13 2 26 4 38 2 13 12 22 29 27 20 5 40 8 61 12l7 1c-13-48-43-72-101-81z m98 133c-21-5-43-8-66-12l-14-3c1 13 2 24 3 36l1 7c2 26 5 52 9 78 35 4 69 7 104 10l14 1-2-14c-3-21-6-43-11-65-4-21-17-34-38-38z m45-86c-9 48 31 90 85 89-29-30-56-59-85-89z m111 169c-14-22-38-38-67-48 0 3 1 6 1 8 3 21 6 41 10 60 2 7 7 18 31 25 12 3 24 6 36 9l3 0c1-19-3-37-14-54z m2 99c-4-1-33 0-43 1l-1 0v96l66-12c0-4 0-8 0-12 0-19 1-36-1-53 0-11-4-17-21-20z" horiz-adv-x="833" />
<glyph glyph-name="drink" unicode="&#xe812;" d="m874 850c-82 0-150-66-150-148h-567l303-300 269 266c0-1 0-1 0-1l67 65c11 11 29 11 41 0 11-11 11-29 0-41l-81-79c0 0 0 0 0-1l-296-292-393 388c-15 15-40 15-55 0s-16-40 0-55l409-405v-319h-258c-22 0-40-17-40-39 0-22 18-39 40-39h595c22 0 39 17 39 39 0 22-17 39-39 39h-258v319l320 317c17-7 35-10 55-10 82 0 149 66 149 148 0 82-67 148-150 148z" horiz-adv-x="1024" />
<glyph glyph-name="drop" unicode="&#xe813;" d="m420 420c22 42 40 87 43 136 6 93-23 176-85 245-15 18-33 32-51 49-1-4-1-5-1-6-2-44-16-84-35-122-32-65-74-123-117-181-47-66-96-131-132-205-22-44-39-90-42-140-3-73 16-139 56-199 21-34 48-62 82-86 3 73 34 133 70 190 29 45 60 88 91 132 44 60 88 120 121 187z m231-226c-4 96-39 183-76 271-2-3-2-5-3-6-8-35-22-68-39-99-33-64-75-120-115-178-40-57-79-114-115-172-26-42-44-89-48-140 0-9 1-13 11-15 34-6 68-7 102-2 166 21 290 171 283 341z" horiz-adv-x="651" />
<glyph glyph-name="food" unicode="&#xe814;" d="m768 828c-281 6-504-216-505-481-2-278 218-497 495-497 272 0 496 219 496 487 0 273-220 487-486 491z m237-660c-53-74-136-120-228-126l-9-1-6 0c-74 0-139 22-194 66-19 15-22 40-7 59 7 10 19 16 32 16 10 0 20-4 29-10 34-26 70-40 111-46 9-1 17-1 26-1 103 0 197 77 213 176 5 33 4 64-4 95-4 15-3 29 3 39 6 9 15 16 26 18 4 1 7 2 10 2 20 0 36-15 42-38 24-85 8-176-44-249z m426 188c0-147 0-294 0-442 0-46-38-76-81-64-29 9-48 35-45 66 7 75 14 150 22 226 4 41 8 82 12 124 2 19-6 34-17 50-8 12-17 27-17 40 0 105-1 209 2 314 1 38 10 75 19 112 4 17 15 34 25 48 14 18 35 23 54 16 17-7 26-21 26-44 0-149 0-297 0-446z m-1385 344c0-43 0-86 0-130 0-9-2-20 12-20 13-1 13 10 13 19 1 83 2 166 4 250 0 7 0 14 1 22 1 3 6 8 9 8 3 0 8-5 9-8 1-5 1-10 1-15 0-84 0-168 0-251 0-5-1-11 1-15 1-4 6-10 10-9 4 0 10 4 13 8 2 4 1 10 1 15 0 84 0 167 0 251 0 4-1 9 0 13 2 5 7 8 10 12 3-4 8-8 8-12 1-24 2-48 3-73 1-63 1-125 2-188 1-10-5-26 13-27 19 0 13 17 13 28-1 79-2 158-3 237 0 5-1 9 0 14 3 7 7 14 10 21 3-7 10-14 10-21 10-96 19-193 28-290 2-25-5-47-18-68-12-19-25-38-36-57-14-21-19-43-17-68 8-120 15-240 23-361 1-22 3-44 4-66 1-41-26-70-65-69-38 1-63 31-60 71 9 141 17 281 26 422 2 30-5 56-22 81-11 16-21 33-32 49-13 20-19 43-17 67 10 98 19 197 29 295 0 5 6 10 10 14 3-5 8-10 9-16 0-44 0-89 0-133-1 0-2 0-2 0z" horiz-adv-x="1431" />
<glyph glyph-name="graph" unicode="&#xe815;" d="m693 748c-3-6-6-11-9-16 20-16 40-32 60-47 24-20 24-37 1-59-73-71-144-143-215-215-21-21-37-22-56 0-30 36-61 71-87 101-137-138-264-265-387-387 34-35 72-73 114-115 72 73 148 147 221 224 30 33 50 31 76-1 26-32 55-63 84-97 21 20 33 31 44 42 97 97 194 194 291 291 62 62 62 62 127 4 2-2 6-1 13-2 32 123 65 246 100 379-133-36-255-69-377-102z m183-455c0 30 0 60 0 90-70-66-134-125-197-187-10-10-16-29-17-44-1-88 0-176-1-265 0-26 11-38 38-38 42 1 84 3 125 0 41-3 53 14 53 53-2 131-1 261-1 391z m-288-172c-23-26-46-53-69-79-18-21-35-21-52 0-20 23-39 46-58 70-6-4-11-7-17-11 0-72-1-144 2-216 0-12 20-32 33-32 48-4 96-3 144-1 11 0 31 13 31 20 2 80 1 161 1 241-5 3-10 6-15 8z m-473-259c63 0 133 0 203 1 6 0 16 13 17 20 1 71 0 142 0 199-71-71-145-145-220-220z" horiz-adv-x="1070" />
<glyph glyph-name="kids" unicode="&#xe816;" d="m1052 520c10 11 16 39 9 48-16 23-40 39-62 59-42-44-78-84-116-121-15-14-36-25-56-28-89-15-168 1-223 87-10 16-27 27-39 42-16 19-30 19-47 0-23-26-50-47-70-75-45-63-103-88-176-73-21 4-44 12-60 26-38 35-71 75-109 110-11 10-38 15-47 8-22-16-37-41-56-64 51-53 96-100 142-146 21-20 30-40 29-70-1-140 1-281-1-421-1-47 20-51 55-52 37-1 62 7 60 54-3 45-1 90-1 135 17 2 29 4 44 6 0-47 1-94-1-141-2-47 22-55 60-54 34 1 56 5 55 51-3 144-1 288-1 431 0 26 71 120 95 126 4 1 9 0 13-1 36-11 83-90 75-126-8-33-18-66-25-99-11-55-20-112-31-170 26-2 45-3 65-5 0-42 0-81 0-121 0-80 0-79 77-77 32 1 45 15 45 47-1 42 0 84 0 127-1 30 13 31 35 20 0-47 3-92-1-137-4-48 15-63 57-56 6 1 12 0 18 0 30-4 41 9 40 41-2 52 0 105 0 157 26 1 46 2 67 3 1 8 3 14 2 19-18 87-38 173-55 260-2 15 3 38 13 49 39 45 82 86 121 131z m-748 11c71-1 149 69 144 139-5 85-62 151-140 150-72-2-146-64-137-145 0-78 60-143 133-144z m460 0c71-1 148 69 144 139-5 85-62 151-140 150-73-2-146-64-138-145 0-78 60-143 134-144z m-76 227c0 0-66 87-75 92-8 5-93-61-95-71-1-10 128-66 128-66l42 45z m135 0c0 0 66 87 75 92 8 5 93-61 95-71 1-10-128-66-128-66l-42 45z" horiz-adv-x="1064" />
<glyph glyph-name="lamp" unicode="&#xe817;" d="m507 850c4-2 9-4 14-6 11-7 17-18 18-31 0-41 0-81-1-121-1-20-17-34-37-34-19 0-34 13-37 33-1 5-1 9-1 14 0 31 0 62-1 93-1 25 7 44 33 52 4 0 8 0 12 0z m-507-495c2 5 4 10 7 14 7 11 17 18 30 18 41 0 82 0 123-1 19-1 32-18 32-37 0-19-13-34-32-37-12-1-24-1-37-1-23 0-47 1-71 0-25-1-44 7-52 32 0 4 0 8 0 12z m1002-12c-2-4-4-9-7-14-7-11-17-17-31-17-41-1-82-1-123 0-18 1-31 18-31 38 0 18 13 34 31 36 13 2 25 1 37 2 24 0 48-1 72 0 25 1 44-7 52-33 0-4 0-8 0-12z m-502-301c-27 0-54 0-81 0-22 0-33 10-32 32 1 25-8 47-21 69-20 33-42 66-61 100-22 40-31 84-27 130 8 71 41 128 102 167 83 53 182 47 260-14 46-35 73-83 82-141 8-58-5-111-35-161-16-27-34-54-51-81-13-22-22-44-21-69 0-22-11-32-32-32-28 0-55 0-83 0z m1-40c27 0 54 0 81 0 23 0 34-11 34-34 0-16 0-32 0-48 0-22-11-33-33-33-1 0-1 0-2 0-11 2-18-2-25-11-28-35-83-35-110 0-7 8-13 12-24 12-27-1-36 9-36 35 0 15 0 31 0 46 0 22 11 33 33 33 27 0 55 0 82 0z m-208 588c0-11-7-22-20-29-13-7-27-6-39 3-2 1-5 3-6 5-27 26-54 53-80 80-20 21-14 51 12 62 16 7 30 2 42-9 27-27 54-53 80-80 8-8 12-17 11-32z m448-33c-10 0-21 6-28 19-7 14-7 27 2 40 6 8 14 15 21 22 21 21 42 43 63 63 22 21 53 15 64-11 6-16 2-31-10-42-26-27-53-54-79-80-8-7-17-12-33-11z m-568-572c-15 0-26 7-33 21-6 13-5 26 3 38 2 3 5 6 7 8 25 26 51 51 76 77 17 16 38 17 54 4 17-15 19-38 2-56-26-28-54-55-82-81-6-7-17-9-26-14 0 1 0 2-1 3z m692 37c0-15-7-27-21-34-14-6-27-5-39 4-3 2-5 4-7 6-26 25-51 51-77 77-21 21-16 53 11 64 16 7 30 2 42-9 27-27 53-53 80-80 7-8 12-17 11-28z" horiz-adv-x="1002" />
<glyph glyph-name="marker" unicode="&#xe819;" d="m375 850c-207 0-375-163-375-364 0-200 375-636 375-636s375 436 375 636c0 201-168 364-375 364z m1-584c-115 0-208 93-208 208s93 208 208 208 208-93 208-208-93-208-208-208z" horiz-adv-x="750" />
<glyph glyph-name="music" unicode="&#xe81a;" d="m1187 850h-140-496-140v-410-131c-69 24-155 21-236-16-142-66-212-212-156-325 56-113 215-152 357-86 111 52 177 153 174 248h1v310h496v-131c-70 24-156 21-236-16-142-66-212-212-156-325 55-114 215-152 357-86 111 52 176 153 174 248h1v310 410h0z m-949-668c-72-35-99-45-170-119 4 86 80 154 165 185 104 38 178-26 178-26s-102-6-173-40z m636 0c-72-35-99-45-170-119 4 86 80 154 165 185 104 38 178-26 178-26s-102-6-173-40z m221 489h-591v92h591l0-92 0 0z" horiz-adv-x="1187" />
<glyph glyph-name="park" unicode="&#xe81b;" d="m586 645c-27 31-35 63-13 96 29 43 72 37 115 27 0 7-1 13-1 19-1 24 7 43 28 55 25 15 48 7 68-7 19-12 25-32 21-55-1-5-2-10-3-17 6-1 11-3 17-5 54-14 91-58 95-113 0-7 0-12 9-14 44-11 58-53 31-89-2-3-4-5-6-9 35-22 57-53 63-95 4-27-2-53-15-77-29-55-81-77-148-63-9-27-26-48-49-65-62-43-144-24-182 48-4 9-11 10-19 13-72 23-117 72-130 146-15 82 26 159 101 196 5 3 10 6 18 9z m-516-613c191 0 243 0 435 0 0 18-1 10 0 27 1 25 14 39 35 39 21 1 34-13 34-39 1-69 0-139 0-209-23 0-45 0-69 0 0 34 0 68 0 102-192 0-244 0-435 0 0-33 0-68 0-102-24 0-46 0-70 0 0 27 0 54 0 79 0 69 0 111 0 128 0 26 13 41 35 41 21 0 33-14 34-39 1-9 1-17 1-25 0-9 0 9 0-2z m172 30c-66 0-21 1-88 0-46-1-51 17-42 54 4 16 19 20 34 20 55 0-1 0 54 0 81 0 149 0 230 0 15 0 33 0 37-17 3-17 3-27-3-43-4-8-24-13-37-13-66-2-119-1-185-1z m0 108c-69 0-26 0-95 0-28 0-38 10-38 40 0 19 9 33 37 33 137 0 150 0 288 0 29 0 37-14 37-34 0-30-9-39-39-39-68 0-122 0-190 0z m441-5c36 6 72 15 108-6 0-3 1-8 1-14 0-71 0-152 0-222 0-10-1-19-3-29-7-29-23-41-54-41-28 1-45 14-51 42-1 3-1 7-1 10 0 83 0 176 0 260z" horiz-adv-x="1011" />
<glyph glyph-name="picture" unicode="&#xe81c;" d="m500 767l225-226 30 54-255 255-255-255 30-54 225 226z m-500-121v-796h1003v796h-1003z m878-670h-753v544h753v-544z m-503 81l208 250 208-250h-416z m-167 0l133 168 132-168h-265z m125 314c0-35-28-63-62-63-35 0-63 28-63 63 0 34 28 62 63 62 34 0 62-28 62-62z" horiz-adv-x="1003" />
<glyph glyph-name="more" unicode="&#xe81d;" d="m1001 850h-1001l501-556 500 556z m-1000-889h1002v-111h-1002v111z m0 223h1002v-111h-1002v111z" horiz-adv-x="1003" />
<glyph glyph-name="down-open" unicode="&#xe81e;" d="m564 422l-234-224q-18-18-40-18t-40 18l-234 224q-16 16-16 41t16 41q38 38 78 0l196-188 196 188q40 38 78 0 16-16 16-41t-16-41z" horiz-adv-x="580" />
<glyph glyph-name="cancel" unicode="&#xe81f;" d="m654 349l346-346-154-154-346 346-346-346-154 154 346 346-346 346 154 154 346-346 346 346 154-154z" horiz-adv-x="1000" />
</font>
</defs>
</svg>
